<svg xmlns="http://www.w3.org/2000/svg" version="1.1" x="0" y="0" viewBox="0 0 430 93" xml:space="preserve">

  <path d="M165.8 52.9H157v8.8h8.8v17.7H0V0h165.8v52.9z" fill="#333"></path>
  <path d="M36.4 17.7c8.3 0 13.2 5.3 13.2 12.4 0 4.6-2.2 8-5.5 9.6 3.4 1.7 5.5 5.1 5.5 9.6 0 7.2-4.9 12.5-13.2 12.5H17.6V17.7h18.8zm-.2 8.8h-9.8v8.8h9.8c2.7 0 4.5-1.8 4.5-4.5 0-2.6-1.7-4.3-4.5-4.3zm0 17.6h-9.8v8.8h9.8c2.8 0 4.5-1.7 4.5-4.2 0-2.8-1.8-4.6-4.5-4.6zM66 17.7v44.1h-8.9V17.7zM89.6 43.2l-5.5 5.6v13h-8.8V17.7h8.8v18.5l18.5-18.5H115L95.9 36.9l19.2 24.9h-11.2zM148.2 17.7v8.8h-19.7v8.8h19.7v8.8h-19.7v8.8h19.7v8.9h-28.5V17.7z" fill="#fff"></path>
  <path d="M174.6 61.7h8.8v-8.8h-8.8V12.8h255.3v79.5H174.6V61.7z" fill="#333">
  </path>
  <path fill="#fff" d="M264 30.5v8.8h-19.7v8.8H264V57h-19.7v8.8H264v8.8h-28.5V30.5zM289.4 30.5c9 0 15.5 6.5 15.5 15.4s-6.5 15.4-15.5 15.4H281v13.3h-8.9V30.5h17.3zm0 8.8H281v13.2h8.4c4.2 0 6.7-2.8 6.7-6.6s-2.5-6.6-6.7-6.6zM338.4 67.7h-23.1l-3.2 6.9h-9.7l20.4-44.1h8.2l20.4 44.1h-9.7l-3.3-6.9zm-19-8.9h15l-7.5-16.2-7.5 16.2zM365.3 30.5v44.1h-8.8V30.5zM220.1 59c4.2-2.7 6.9-7.5 6.9-13.1 0-8.8-6.4-15.4-15.5-15.4h-19.3v44.1h8.8V61.3h10.2l8.3 13.3h10.4L220.1 59zm-1.9-13.1v.1c0 .8-.1 1.5-.4 2.2 0 .2-.1.4-.2.6-.2.6-.6 1.2-1.1 1.7l-.3.3c-.3.2-.6.5-.9.7v-.1c-1.2.7-2.5 1.1-3.8 1.1H201V39.3h10.5c4.2 0 6.7 2.8 6.7 6.6zM402.5 59c4.3-2.7 7-7.5 7-13.1 0-8.8-6.5-15.4-15.6-15.4h-19.3v44.1h8.9V61.3h10.1l8.3 13.3h10.4L402.5 59zm-1.9-13.1v.1c0 .8-.1 1.5-.4 2.2 0 .2-.1.4-.1.6-.3.6-.7 1.2-1.2 1.7l-.3.3c-.3.2-.5.5-.9.7v-.1c-1.1.7-2.5 1.1-3.8 1.1h-10.4V39.3h10.4c4.2 0 6.7 2.8 6.7 6.6z">
  </path>

</svg>