<svg xmlns="http://www.w3.org/2000/svg" version="1.1" viewBox="0 0 246.2 62" xml:space="preserve">
<path fill="#333" d="M13.1 55.7c-0.6 2.3-2.2 3.8-4.8 4.5C6 60.9 4 60.7 2.2 59.6c-2-1.2-2.6-3-1.9-5.3 0.6-2.7 1.8-7 3.6-12.9 1.8-5.9 3-10.1 3.7-12.5 1.7-6 2.7-9.9 3.2-11.8 1.5-4.8 2.6-7.8 3.2-8.9 0.6-1.2 1.2-2 1.7-2.4 0.5-0.5 1.3-1 2.3-1.6 1.1-0.6 2.2-1.1 3.5-1.4C22.8 2.3 24 2.1 25.3 2c1.2-0.1 2.5-0.2 3.8-0.3 1.3-0.1 2.7-0.3 4.3-0.7 0.6 0 1.2 0 1.7-0.1 0.5-0.1 1-0.2 1.5-0.2 1.1-0.1 2.2 0 3.3 0.4 1.1 0.3 1.9 0.9 2.4 1.8 0.6 0.9 0.8 1.8 0.8 3 0 1.1-0.2 2.3-0.7 3.5 -0.5 1.2-1.1 2.4-1.9 3.6 -1.8 2.5-4 4.3-6.7 5.3 -1.9 0.6-3.2 0.9-4 0.9 -0.8 0-1.4-0.1-1.7-0.3 -0.3-0.2-0.5-0.3-0.5-0.4 0-0.1-0.2 0.1-0.5 0.5 -0.4 0.6-0.7 1.3-0.9 2.1 -0.2 0.8-0.4 1.3-0.6 1.7 -0.2 0.4-0.6 1.1-1 2.1 -0.4 1.1-0.9 1.9-1.5 2.6 -0.6 0.7-1 1.1-1.1 1.3l6.3-0.6c1-0.1 1.9 0.1 2.6 0.6 0.7 0.5 1.3 1.1 1.6 1.8 0.3 0.7 0.4 1.4 0.3 2.1 -0.1 0.7-0.6 1.2-1.3 1.6 -0.7 0.4-1.2 0.7-1.4 1.1 -0.2 0.4-0.4 0.7-0.5 1 -0.1 0.3-0.3 0.7-0.5 1 -0.2 0.3-0.7 0.6-1.4 0.9C26 39 23 39.5 18.6 40c-0.2 0.7-0.6 1.6-1 2.6 -0.4 1-0.8 2-1.3 3.1 -1.2 3.2-2 5.2-2.1 5.8 -0.2 0.7-0.3 1.2-0.4 1.7C13.6 54.4 13.3 55.3 13.1 55.7zM49.2 47.3c2.8 0.3 4.9 0.4 6.2 0.4s3.4-0.2 6.2-0.6c0.9 0.3 1.4 0.6 1.5 1.1 0.1 0.4 0.2 0.9 0.1 1.3 0 0.5 0 0.9 0.1 1.3 0.1 0.4 0.6 0.8 1.4 1.1 0.4 0.1 0.6 0.6 0.4 1.3C65 54 64.6 54.7 64 55.5c-1.6 2.1-3.5 3.5-5.6 4.3 -3.5 0.9-6.2 1.4-8.1 1.5 -3.3 0.2-6.8 0.1-10.7-0.4 -4.2-0.8-6.3-2.5-6.1-5.3 0-10.1 2.2-20.2 6.6-30.4 1.4-3.3 3.1-6.8 4.9-10.4 0.4-0.8 0.6-1.6 0.7-2.6 0.1-1 0.1-1.9 0.2-2.8 0-0.9 0.2-1.7 0.4-2.4 0.2-0.7 0.7-1.2 1.5-1.5 10-4 17.9-5.5 23.7-4.6 2 0 3.3 0.7 4 2.1 0.6 1.3 0.7 2.8 0.2 4.4 -0.5 1.6-1.5 3.2-3 4.6 -1.5 1.4-3.3 2.3-5.5 2.7 -2.8 0.8-4.6 1.4-5.2 1.7 -1.2 0.6-2.1 1.3-2.6 2.3 -0.7 1.1-1.3 2.1-1.9 3 -0.6 1-1 2-1.2 3.1l-0.3 1.6c0.9 0.4 2 0.6 3.3 0.4 1.3-0.2 2.5-0.3 3.7-0.5 1.1-0.2 2-0.2 2.7 0 0.7 0.1 0.8 0.9 0.4 2.1 -0.4 1.3-1.2 2.7-2.2 4.3 -1.1 1.6-2.6 2.7-4.6 3.5 -1.2 0.2-2.1 0.4-2.6 0.5 -0.5 0.1-0.8 0.2-1 0.3 -0.3 0-1.3 0.1-2.9 0.2 -2.3 3.8-3.6 6.8-4.1 8.9C48.7 46.9 48.8 47.3 49.2 47.3zM75.6 28.5c1-3.2 1.7-5.7 2.3-7.5 0.6-1.8 1.2-3.3 1.8-4.7 0.6-1.4 1.2-2.7 2-4 0.7-1.3 1.6-2.5 2.4-3.6C85 7.6 86 6.8 87 6.1c1-0.6 2.1-0.9 3.2-0.9 1.1 0 2.3 0.4 3.5 1.3 1.9 4.8 2.1 8 2.5 9.6 0.6 2.4 1.1 5.8 1.6 10.2 0.4-1.1 0.9-2.3 1.5-3.5 0.6-1.2 1.1-2.5 1.6-3.7 1.5-3.2 2.4-5.6 2.8-7.2 1.1-3.4 3.2-5.9 6.6-7.6 2.9-1.4 5.6-1.9 8.1-1.4 1 0.2 1.7 0.6 2.1 1.2 0.4 0.6 0.4 1.3 0 1.9 -0.4 0.7-0.6 1.3-0.4 1.9 0.1 0.6 0.2 1.3 0.3 2.1 0.1 2.2-0.2 4.2-1.2 5.9 -0.9 1.7-1.8 3.8-2.8 6.3 -1 2.5-1.9 5.2-2.9 8 -1 2.8-2 5.7-3 8.6 -1 2.9-2 5.6-3 8 -2.1 5.5-3.8 8.6-5.2 9.1 -1.8 1.1-3.2 1.8-4 1.9 -1.1 0.2-1.7 0.2-3.7 0 -1.2-0.1-2.3-1.7-3.2-4.8 -0.5-1.7-1-4-1.4-7 -0.8-5.2-1.3-8-1.6-8.6C86.4 44 85 47.9 84.2 49.5c-0.8 1.6-1.4 2.7-1.8 3.2 -0.4 0.5-0.9 1.2-1.5 2.1 -0.6 1.7-2.1 3-4.5 3.8 -2 0.8-3.8 0.9-5.5 0.4 -1.8-0.6-2.3-1.7-1.6-3.3C69.9 50 72 40.9 75.6 28.5zM140.2 37.9c-1.3 3.8-2.7 7.4-4 10.8 -1.3 3.5-2.5 6.1-3.3 7.9 -0.9 1.8-1.7 3-2.3 3.7 -0.7 0.7-1.4 1.1-2.1 1.4 -0.7 0.2-1.4 0.3-2.1 0.3 -0.7 0-1.4-0.1-2.1-0.1 -4-0.6-5.3-3.5-3.7-8.7 1-4.1 1.8-7.5 2.4-10.1 0.6-2.6 1.1-4.8 1.5-6.5 0.4-1.7 0.8-3.1 1-4.2 0.3-1.1 0.6-2.2 0.9-3.3 0.3-1.1 0.8-2.4 1.3-3.7 0.5-1.4 1.2-3.2 2-5.5 -1.8 0.2-3.5 0-4.9-0.6 -2.1-0.9-3-2.9-2.6-5.9 0.2-1.4 0.9-2.7 2.2-3.9 0.7-0.6 1.5-1.3 2.4-2 1.9-1.5 7.6-3.1 13.2-4.8 5.8-1.7 8.7-2.5 12.8-2.4 1.1-0.2 2.2-0.1 3.4 0.4 1.2 0.5 2.1 1.1 2.8 1.8 0.7 0.8 1.1 1.6 1.1 2.5 0 0.9-0.6 1.7-1.8 2.4 -0.6 0.4-1 1-1.2 1.9 -0.2 0.9-0.5 1.8-0.8 2.8 -0.3 1-0.7 1.9-1.3 2.7 -0.6 0.8-1.4 1.3-2.6 1.4 -0.6 0.3-1.5 0.6-2.6 0.7 -1.1 0.1-1.9 0.3-2.2 0.3 -0.4 0.1-0.6 0.2-0.6 0.4 -0.9 2.5-1.9 5.6-3.1 9.3C142.7 30.5 141.5 34.2 140.2 37.9zM130.4 18.9c-0.1 0-0.1 0-0.1 0C130.3 18.9 130.3 18.9 130.4 18.9L130.4 18.9zM164.8 8.7c3-3.5 6.4-5.6 10.1-6.5 2.5-0.6 4.9-0.5 7.2 0.3 1.8-1.9 4.1-2.5 6.9-2 2.6 0.5 4.8 1.9 6.6 4.4 0.1 0.3 0.3 0.8 0.6 1.5 0.3 0.7 0.6 1.4 0.9 2.2 2.1 4.9 2.3 11.3 0.5 19.3 -2.2 9.9-6.1 18.3-11.7 25.1 -1.7 2.1-3.7 3.9-5.8 5.3 -3.5 2.6-7.6 3.8-12.4 3.5 -3-0.1-5.5-0.9-7.5-2.2 -8-4-10.6-12.3-7.8-24.9C154.7 24.3 158.8 15.7 164.8 8.7zM165.7 47l-0.1 0.4 0.1 0.8c0.3 1.5 0.8 2.6 1.4 3.4 0.7 0.8 1.2 1.3 1.7 1.5 0.5-0.4 1-0.7 1.4-1.1 0.5-0.3 0.9-0.7 1.3-1.2 3.3-4 5.8-9.3 7.6-15.8 1.8-6.5 2.5-12.6 2-18.1 -1.9 2.4-3.8 5.2-5.9 8.3 -2.1 3.1-3.7 5.8-4.9 8C167.7 38.2 166.1 42.8 165.7 47zM200.1 28.5c1-3.2 1.7-5.7 2.3-7.5 0.6-1.8 1.2-3.3 1.8-4.7 0.6-1.4 1.2-2.7 2-4 0.7-1.3 1.6-2.5 2.4-3.6 0.9-1.1 1.8-1.9 2.8-2.6 1-0.6 2.1-0.9 3.2-0.9 1.1 0 2.3 0.4 3.5 1.3 1.9 4.8 3.1 8 3.5 9.6 0.6 2.4 1.1 5.8 1.6 10.2 0.4-1.1-0.1-2.3 0.5-3.5 0.6-1.2 2.1-2.5 2.6-3.7 1.5-3.2 2.4-5.6 2.8-7.2 1.1-3.4 3.2-5.9 6.6-7.6 2.9-1.4 5.6-1.9 8.1-1.4 1 0.2 1.7 0.6 2.1 1.2 0.4 0.6 0.4 1.3 0 1.9 -0.4 0.7-0.6 1.3-0.4 1.9 0.1 0.6 0.2 1.3 0.3 2.1 0.1 2.2-0.2 4.2-1.2 5.9 -0.9 1.7-1.8 3.8-2.8 6.3 -1 2.5-1.9 5.2-2.9 8 -1 2.8-2 5.7-3 8.6 -1 2.9-2 5.6-3 8 -2.1 5.5-3.8 8.6-5.2 9.1 -1.8 1.1-3.2 1.8-4 1.9 -1.1 0.2-2.7 0.2-4.7 0 -1.2-0.1-2.3-1.7-3.2-4.8 -0.5-1.7-1-4-1.4-7 -0.8-5.2-1.3-8-1.6-8.6 -1.9 6.2-3.3 10.2-4.1 11.8 -0.8 1.6-1.4 2.7-1.8 3.2 -0.4 0.5-0.9 1.2-1.5 2.1 -0.6 1.7-2.1 3-4.5 3.8 -2 0.8-3.8 0.9-5.5 0.4 -1.8-0.6-2.3-1.7-1.6-3.3C194.4 50 196.5 40.9 200.1 28.5z">
</path>
</svg>