<svg xmlns="http://www.w3.org/2000/svg" width="348" height="184" viewBox="0 0 348 184" version="1.1">
<g stroke="none" stroke-width="1" fill="none" fill-rule="evenodd">
<g transform="translate(-421.000000, -302.000000)" fill="currentColor">
<g transform="translate(421.000000, 302.000000)">
<path d="M70.2 115.7C65.4 115.7 61.2 114.8 57.7 112.9 54.2 111.1 51.5 108.4 49.6 104.8 47.7 101.2 46.8 97 46.8 92 46.8 87 47.7 82.8 49.6 79.2 51.5 75.6 54.2 72.9 57.7 71.1 61.2 69.2 65.4 68.3 70.2 68.3L70.2 80.5C67.8 80.5 66.1 81.4 65 83.2 63.9 85.1 63.4 88 63.4 92 63.4 96 63.9 98.9 65 100.8 66.1 102.6 67.8 103.5 70.2 103.5L70.2 115.7ZM155.5 103.5C157.9 103.5 159.6 102.6 160.6 100.8 161.7 98.9 162.2 96 162.2 92 162.2 88 161.7 85.1 160.6 83.2 159.6 81.4 157.9 80.5 155.5 80.5L155.5 68.3C162.8 68.3 168.6 70.4 172.7 74.5 176.8 78.7 178.8 84.5 178.8 92 178.8 99.5 176.8 105.3 172.7 109.5 168.6 113.6 162.8 115.7 155.5 115.7L155.5 103.5ZM228.5 95.2C228.5 108.9 221.1 115.7 206.3 115.7 191.5 115.7 184 108.9 184 95.2L184 69 200.4 69 200.4 96.5C200.4 98.8 200.9 100.5 201.9 101.7 202.9 102.9 204.3 103.5 206.3 103.5 208.2 103.5 209.7 102.9 210.8 101.7 211.8 100.5 212.3 98.8 212.3 96.5L212.3 69 228.5 69 228.5 95.2ZM249.6 89.1L255.4 89.1C257.5 89.1 258.9 88.8 259.8 88.1 260.6 87.5 261.1 86.4 261.1 84.8 261.1 83.3 260.6 82.2 259.8 81.5 258.9 80.9 257.5 80.6 255.4 80.6L249.6 80.6 249.6 89.1ZM254.1 99.7L249.6 99.7 249.6 115 233.7 115 233.7 69 258.7 69C264.8 69 269.5 70.3 272.6 72.9 275.8 75.4 277.3 79.3 277.3 84.4 277.3 91.1 274.6 95.7 269 98L279.9 115 262.3 115 254.1 99.7Z"/>
<polygon points="86.4 148.3 86.4 154.7 104.2 154.7 104.2 166.6 86.4 166.6 86.4 182.4 70.2 182.4 70.2 136.3 108.3 136.3 108.3 148.3"/>
<path d="M156.5 162.6C156.5 176.2 149 183.1 134.2 183.1 119.4 183.1 112 176.2 112 162.6L112 136.3 128.3 136.3 128.3 163.8C128.3 166.1 128.8 167.9 129.8 169.1 130.8 170.3 132.3 170.9 134.2 170.9 136.2 170.9 137.7 170.3 138.7 169.1 139.7 167.9 140.2 166.1 140.2 163.8L140.2 136.3 156.5 136.3 156.5 162.6Z"/>
<polygon points="205.4 148.3 191 148.3 191 182.4 174.7 182.4 174.7 148.3 160.3 148.3 160.3 136.3 205.4 136.3"/>
<path d="M254.7 162.6C254.7 176.2 247.3 183.1 232.5 183.1 217.6 183.1 210.2 176.2 210.2 162.6L210.2 136.3 226.5 136.3 226.5 163.8C226.5 166.1 227 167.9 228 169.1 229 170.3 230.5 170.9 232.5 170.9 234.4 170.9 235.9 170.3 236.9 169.1 238 167.9 238.5 166.1 238.5 163.8L238.5 136.3 254.7 136.3 254.7 162.6ZM275.5 156.4L281.3 156.4C283.3 156.4 284.8 156.1 285.7 155.5 286.5 154.9 287 153.8 287 152.2 287 150.6 286.5 149.5 285.7 148.9 284.8 148.2 283.3 147.9 281.3 147.9L275.5 147.9 275.5 156.4ZM280 167.1L275.5 167.1 275.5 182.4 259.6 182.4 259.6 136.3 284.6 136.3C290.7 136.3 295.4 137.6 298.5 140.2 301.6 142.8 303.2 146.6 303.2 151.8 303.2 158.5 300.4 163 294.9 165.4L305.8 182.4 288.1 182.4 280 167.1Z"/>
<polygon points="347.8 170.4 347.8 182.4 308.8 182.4 308.8 136.3 347 136.3 347 148.3 325 148.3 325 154 342.7 154 342.7 165 325 165 325 170.4"/>
<polygon points="200.6 1.6 200.6 47.7 184.4 47.7 184.4 30.5 171.7 30.5 171.7 47.7 155.5 47.7 155.5 1.6 171.7 1.6 171.7 18.6 184.4 18.6 184.4 1.6"/>
<path d="M231.8 28.8L228.1 13.4 227.9 13.4 226.1 21.2 224.2 28.8 231.8 28.8ZM234.1 38.9L221.7 38.9 219.6 47.7 203.4 47.7 218.3 1.6 237.8 1.6 252.8 47.7 236.2 47.7 234.1 38.9ZM275.8 48.4C271 48.4 266.8 47.4 263.3 45.6 259.8 43.7 257.1 41 255.2 37.4 253.3 33.9 252.4 29.6 252.4 24.6 252.4 19.7 253.3 15.4 255.2 11.8 257.1 8.3 259.8 5.6 263.3 3.7 266.8 1.9 271 0.9 275.8 0.9 281.2 0.9 285.8 2.1 289.6 4.4 293.4 6.7 295.8 10.2 296.7 14.9L282.8 20.3C282.4 17.5 281.7 15.6 280.7 14.6 279.8 13.6 278.2 13.1 276.2 13.1 273.8 13.1 272 14.1 270.8 15.9 269.6 17.8 269 20.7 269 24.6 269 28.6 269.5 31.5 270.7 33.4 271.9 35.2 273.6 36.2 276.1 36.2 278.2 36.2 279.8 35.7 280.8 34.7 281.8 33.7 282.4 32.1 282.7 29.9L297.1 33.6C294.7 43.4 287.6 48.4 275.8 48.4"/>
<polygon points="321.1 30.4 317.3 35.6 317.3 47.7 301 47.7 301 1.6 317.3 1.6 317.3 18.8 329.3 1.6 346.6 1.6 332.5 19.9 347.8 47.7 329.6 47.7"/>
<polygon points="32.5 99 32.5 115 16.3 115 16.3 99 0.2 69 16.3 69 21.2 79.5 24.5 87.9 27.8 79.5 32.7 69 48.6 69"/>
</g>
</g>
</g>
</svg>