<svg xmlns="http://www.w3.org/2000/svg" version="1.1" x="0" y="0" viewBox="0 0 120 83" xml:space="preserve">
<polygon fill="transparent" points="53.2 5.4 31.1 5.4 6.8 41.4 42.2 76.8 77.6 41.4 "/>
<path fill="transparent" d="M56.2 0H28.1L0 42.2l42.2 42.2 42.2-42.2L56.2 0zM3.8 41.8L29.8 3h24.8l26.1 38.8L42.2 80.2 3.8 41.8z"/>
<path fill="#EB6209" d="M54.8 3H30L4 41.8l38.4 38.4 38.4-38.4L54.8 3zM7 41.4L31.3 5.4h22.1l24.4 36.1L42.4 76.8 7 41.4z"/>
<path fill="#EB6209" d="M39.4 21c0 0-2.4-3.7 0.2-4.6 0 0 0.1-1-1.8-1 -1.9 0-1.7 1.7-1.8 1.8C36 17.1 35.9 19.1 39.4 21zM41.9 20.9c0 0 2.9-1.7 2.5-4.8 0 0-0.1-2-2.1-2 0 0-2.1-0.2-2.1 1.9C40.1 16.1 44.1 15.1 41.9 20.9z"/>
<polygon fill="#EB6209" points="43.7 11.7 43.1 10.1 41.1 10.1 40.6 11.7 42.1 13.1 "/>
<path fill="#EB6209" d="M35.5 20.9c0 0-1-2.6 0.1-3 0 0-0.3-0.9-1.1-0.9 -0.7 0-1.2 0.4-1.2 1.3C33.3 19.2 34.7 20.6 35.5 20.9zM29 33.6c-0.7 2.2 2 2.7 2 2.7 -0.7-0.6 0.2-0.8 0.2-0.8 0.8-0.2 2.5 0 2.5 0 4.4 0.6 3.9 3.9 3.9 3.9 -1.8-0.6-2.8 0.3-2.8 0.3 -1.3 1.1-1.9 0.2-1.9 0.2 -0.8 3.2 1 4.6 1 4.6 0.7-3.9 4.6-4.2 4.6-4.2 0-4.1 4.8-2.9 4.8-2.9 -1-2.2-3.2-2.4-3.2-2.4 3.5-0.5 3.1-3.4 3.1-3.4C41 33 38 32.3 38 32.3c3-1.1 2.8-3.1 2.8-3.1 -1.8 1.4-4.1 1-4.1 1 1.3-0.3 0.7-2.4 0.7-2.4 -0.2 1.1-2.8 1-2.8 1 -2-0.1-1.9 1.4-1.9 1.4 0.1 0.2 1.2 0.6 1.9 0.9 0.7 0.3 0.8 0.6 0.8 0.6 -0.1 0.9-1 0.8-1 0.8 -0.8 0-0.8-0.9-0.8-0.9 -1.4-0.4-4.5 0.8-4.5 0.8C28.1 32.9 29 33.6 29 33.6zM45.1 21c0 0 3.6-1.1 3.4-4.4 0 0-0.2-1.4-1.7-1.4 0 0-1.4 0.1-1.8 1.1C45 16.4 47.2 17.8 45.1 21zM51 21.1c-1.9 1.6-7.1 0.9-7.1 0.9 -3.2-0.4-3.8 0.2-5 1.3 -1.3 1.2-1 3.7-1 3.7 2.9-4.2 5.2-2.3 5.2-2.3 -2.6 1.4-2 4.1-2 4.1 2.4-3.5 5.7-1.9 5.7-1.9 1.9 0.9 4.4 0.7 4.4 0.7 3.8-0.2 4.7-3.5 4.7-3.5 -3.1 1.6-7.9 0.3-7.9 0.3C51.2 22.9 51 21.1 51 21.1zM41.6 46c1.3 1.9 2.2 5.3 2.2 5.3 1.7-2.2-0.1-5-0.1-5 -2.9-3.4-2-5.2-2-5.2C39.7 43.6 41.6 46 41.6 46zM48.6 28.4c0 0-4.9-1.3-4.9 2.8 0 0 2.9-1.9 5.4 0 0.3-0.1 3.1 2.2 6.3-0.9 0 0 1.5-2 3.5-1.8 0 0-1.5-2.2-4.4-0.5C51.5 29.6 52.5 29.9 48.6 28.4zM52.2 33.4c0 0-6.1-3.4-8 1.6 0 0 3.8-2.4 7.5 0.5 0 0 3.6 2.2 6.2 0.1 0 0 2.3-1.8 2.7-2.9C60.5 32.7 57.2 35.4 52.2 33.4zM49 20.8c0 0 1.9-0.7 2.2-2.6 0 0 0.1-1.1-1.1-1.2 0 0-0.9-0.1-1.2 0.7C48.9 17.7 50.1 19 49 20.8zM39.1 22.2c0 0-3.4-1.8-4.9 1.4 0 0-1.2 1.7 1.7 4.4C35.9 27.9 34.1 23.7 39.1 22.2zM51.2 43.1c0 0-2.4-5.3-7.6-4 0 0 3.1 1 4.9 4 0 0 2 5.4 7.6 2.7C56.1 45.9 52.5 46.1 51.2 43.1zM55.2 38.3c-2.5 1.7-4.5-1.1-4.7-1.3 -0.6-0.7-3.6-3.3-6.3 0.1 0 0 3.1-0.9 5.5 2 2.4 2.9 5 2.5 6.8 1.1 1.7-1.5 3.6-1.9 3.6-1.9S57.6 36.6 55.2 38.3zM51.4 49c0 0-3.3-0.5-4.2-4.1 0 0-0.9-3.3-4.6-4.5 -0.4-0.1 1.5 1.5 2.5 4.9C45.2 45.3 47.3 50.6 51.4 49zM34.9 38.6c-0.8-2.8-5.5-1-5.5-1 -4.6 1.6-4.9-1.5-4.9-1.5 -2.1 1.9-1.1 2.9-0.3 3.6 0.8 0.7 2.6 0.7 5.9-0.6C33.5 37.8 34.9 38.6 34.9 38.6zM39.8 46.8c-1.7-3 0-5 0-5 -2.8 0.8-1.9 3.9-1.9 3.9 1 2 0.5 5.1 0.5 5.1C40.9 50.4 39.8 46.8 39.8 46.8zM36.4 45.7c-1.2-2.3 1.8-4.4 1.8-4.4 -4.5 1.6-3 4.2-3 4.2 0.6 1.9-0.2 3.5-0.2 3.5C37.3 47.7 36.4 45.7 36.4 45.7z"/>
<path fill="#EB6209" d="M31.9 55.5l3.5 3.7H33l-2.3-2.5 -0.1 0.1 -0.3 0.3v2.1h-1.8v-7.5h1.8v3.1c0.9-1 1.9-2.1 2.8-3.1h2.3L31.9 55.5zM41.2 59.2l-3-4.2v4.2h-1.9v-7.4h1.8l3 4.2v-4.2H43v7.4H41.2zM50.9 51.8l-3.5 8.1L44 51.8h1.9l1.5 3.7 1.5-3.7H50.9zM56.7 55.5c0.9 0.4 1 1.1 1 1.4 0 0.1 0 0.1 0 0.1 0 2.1-2.4 2.2-2.9 2.2h-2.8v-7.5c2.8 0 2.8 0 2.9 0 0.2 0 2.8 0.1 2.8 2.2C57.5 54.7 57.1 55.2 56.7 55.5zM53.7 54.7h1c0 0 1 0 1-0.6 0-0.5-0.5-0.7-1-0.7h-1V54.7zM55.8 56.9c0-0.6-0.8-0.6-1.1-0.6 0 0-0.1 0-0.1 0h-1v1.3h1C55.1 57.6 55.8 57.5 55.8 56.9z"/>
</svg>