<svg xmlns="http://www.w3.org/2000/svg" width="51" height="49" viewBox="0 0 70 70"><path d="M38.7 43.6C39.5 45.3 41.3 46.2 43.1 46.2 45.2 46.2 47.3 44.9 47.3 42.5 47.3 41 46.4 40 44.6 39.3L43 38.7C42.6 38.5 42.3 38.4 42.3 38 42.3 37.6 42.6 37.3 43.2 37.3 43.9 37.3 44.4 37.8 44.7 38.5L47.2 36.9C46.4 35.5 44.8 34.6 43.1 34.6 40.8 34.6 39.2 36 39.2 38.2 39.2 39.9 40.3 40.9 41.9 41.5L43.3 42C43.9 42.2 44.2 42.4 44.2 42.7 44.2 43.2 43.7 43.4 43.1 43.4 42.3 43.4 41.6 42.9 41.2 42.1L38.7 43.6ZM22.7 43.6C23.5 45.3 25.3 46.2 27.1 46.2 29.2 46.2 31.3 44.9 31.3 42.5 31.3 41 30.4 40 28.6 39.3L27 38.7C26.6 38.5 26.3 38.4 26.3 38 26.3 37.6 26.6 37.3 27.2 37.3 27.9 37.3 28.4 37.8 28.7 38.5L31.2 36.9C30.4 35.5 28.8 34.6 27.1 34.6 24.8 34.6 23.2 36 23.2 38.2 23.2 39.9 24.3 40.9 25.9 41.5L27.3 42C27.9 42.2 28.2 42.4 28.2 42.7 28.2 43.2 27.7 43.4 27.1 43.4 26.3 43.4 25.6 42.9 25.2 42.1L22.7 43.6ZM22.7 43.6L21.7 41.8C20.8 42.4 20.5 43.5 20.9 44.4L22.7 43.6ZM28.6 39.3L27.9 41.1 27.9 41.1 28.6 39.3ZM27 38.7L26.3 40.5C26.3 40.5 26.3 40.6 26.3 40.6L27 38.7ZM28.7 38.5L26.9 39.4C27.2 39.9 27.6 40.2 28.2 40.4 28.7 40.5 29.3 40.5 29.8 40.2L28.7 38.5ZM31.2 36.9L32.2 38.6C33.1 38.1 33.4 36.9 32.9 36L31.2 36.9ZM25.9 41.5L26.6 39.6 26.6 39.6 25.9 41.5ZM27.3 42L26.6 43.8C26.6 43.8 26.7 43.8 26.7 43.8L27.3 42ZM25.2 42.1L27 41.3C26.8 40.7 26.4 40.3 25.8 40.2 25.3 40 24.7 40.1 24.2 40.3L25.2 42.1ZM20.9 44.4C22.1 47 24.6 48.2 27.1 48.2V44.2C25.9 44.2 24.9 43.6 24.5 42.7L20.9 44.4ZM27.1 48.2C29.9 48.2 33.3 46.4 33.3 42.5H29.3C29.3 43.1 29.1 43.4 28.7 43.7 28.4 44 27.8 44.2 27.1 44.2V48.2ZM33.3 42.5C33.3 41.4 32.9 40.3 32.2 39.3 31.4 38.4 30.4 37.8 29.2 37.4L27.9 41.1C28.6 41.4 28.9 41.7 29.1 41.9 29.2 42 29.3 42.2 29.3 42.5H33.3ZM29.3 37.4L27.7 36.8 26.3 40.6 27.9 41.1 29.3 37.4ZM27.8 36.8C27.7 36.8 27.6 36.8 27.6 36.8 27.6 36.8 27.6 36.8 27.7 36.9 27.8 36.9 28 37.1 28.1 37.3 28.2 37.6 28.3 37.8 28.3 38H24.3C24.3 38.9 24.7 39.6 25.2 40 25.6 40.3 26.1 40.5 26.3 40.5L27.8 36.8ZM28.3 38C28.3 38.2 28.2 38.4 28.1 38.6 28 38.8 27.9 39 27.7 39.1 27.6 39.2 27.4 39.3 27.3 39.3 27.2 39.3 27.2 39.3 27.2 39.3V35.3C26.6 35.3 25.9 35.5 25.3 35.9 24.7 36.4 24.3 37.2 24.3 38H28.3ZM27.2 39.3C27.1 39.3 27 39.3 27 39.3 26.9 39.3 26.9 39.3 26.9 39.3 26.9 39.2 26.9 39.2 26.9 39.3 26.9 39.3 26.9 39.3 26.9 39.4L30.5 37.6C30 36.5 28.9 35.3 27.2 35.3V39.3ZM29.8 40.2L32.2 38.6 30.1 35.2 27.7 36.8 29.8 40.2ZM32.9 36C31.8 33.8 29.5 32.6 27.1 32.6V36.6C28.1 36.6 29 37.1 29.4 37.9L32.9 36ZM27.1 32.6C25.5 32.6 24.1 33.1 22.9 34.1 21.8 35.1 21.2 36.6 21.2 38.2H25.2C25.2 37.6 25.4 37.3 25.6 37.1 25.9 36.8 26.4 36.6 27.1 36.6V32.6ZM21.2 38.2C21.2 39.5 21.7 40.7 22.5 41.6 23.3 42.5 24.3 43 25.3 43.4L26.6 39.6C26 39.4 25.6 39.1 25.5 38.9 25.3 38.7 25.2 38.5 25.2 38.2H21.2ZM25.3 43.4L26.6 43.8 28 40.1 26.6 39.6 25.3 43.4ZM26.7 43.8C26.9 43.9 26.8 43.9 26.6 43.8 26.5 43.7 26.4 43.5 26.3 43.3 26.2 43.1 26.2 42.9 26.2 42.7H30.2C30.2 42 29.9 41.3 29.3 40.8 28.9 40.4 28.4 40.2 27.9 40.1L26.7 43.8ZM26.2 42.7C26.2 42.5 26.2 42.2 26.4 42 26.5 41.8 26.7 41.6 26.8 41.5 27 41.4 27.2 41.4 27.1 41.4V45.4C27.6 45.4 28.3 45.3 28.9 44.9 29.6 44.5 30.2 43.7 30.2 42.7H26.2ZM27.1 41.4C27.2 41.4 27.2 41.4 27.1 41.4 27.1 41.4 27.1 41.3 27 41.3L23.4 42.9C24 44.3 25.5 45.4 27.1 45.4V41.4ZM24.2 40.3L21.7 41.8 23.7 45.3 26.2 43.8 24.2 40.3ZM25.6 2.8L21.2 14H24.3L25 12.1H28.9L29.7 14H32.8L28.4 2.8H25.6ZM27 6.5L28.1 9.6H25.8L27 6.5ZM25.6 2.8V0.8C24.8 0.8 24.1 1.3 23.8 2.1L25.6 2.8ZM21.2 14L19.3 13.3C19.1 13.9 19.2 14.6 19.5 15.1 19.9 15.7 20.5 16 21.2 16V14ZM24.3 14V16C25.1 16 25.8 15.5 26.1 14.7L24.3 14ZM25 12.1V10.1C24.1 10.1 23.4 10.6 23.1 11.4L25 12.1ZM28.9 12.1L30.8 11.4C30.5 10.6 29.8 10.1 28.9 10.1V12.1ZM29.7 14L27.8 14.7C28.1 15.5 28.8 16 29.7 16V14ZM32.8 14V16C33.5 16 34.1 15.7 34.5 15.1 34.8 14.6 34.9 13.9 34.7 13.3L32.8 14ZM28.4 2.8L30.2 2.1C29.9 1.3 29.2 0.8 28.4 0.8V2.8ZM27 6.5L28.8 5.8C28.6 5 27.8 4.5 27 4.5 26.1 4.5 25.4 5 25.1 5.8L27 6.5ZM28.1 9.6V11.6C28.7 11.6 29.4 11.2 29.7 10.7 30.1 10.2 30.2 9.5 30 8.9L28.1 9.6ZM25.8 9.6L24 8.9C23.7 9.5 23.8 10.2 24.2 10.7 24.6 11.2 25.2 11.6 25.8 11.6V9.6ZM23.8 2.1L19.3 13.3 23 14.7 27.5 3.5 23.8 2.1ZM21.2 16H24.3V12H21.2V16ZM26.1 14.7L26.8 12.8 23.1 11.4 22.4 13.3 26.1 14.7ZM25 14.1H28.9V10.1H25V14.1ZM27.1 12.8L27.8 14.7 31.5 13.3 30.8 11.4 27.1 12.8ZM29.7 16H32.8V12H29.7V16ZM34.7 13.3L30.2 2.1 26.5 3.5 30.9 14.7 34.7 13.3ZM28.4 0.8H25.6V4.8H28.4V0.8ZM25.1 7.2L26.2 10.3 30 8.9 28.8 5.8 25.1 7.2ZM28.1 7.6H25.8V11.6H28.1V7.6ZM27.7 10.3L28.8 7.2 25.1 5.8 24 8.9 27.7 10.3ZM14.1 18.8L11.1 25.7 8.1 18.8H4.4V30H7.3V23.7L10 30H12L14.7 23.7V30H17.6V18.8H14.1ZM14.1 18.8V14.8C12.5 14.8 11 15.7 10.4 17.2L14.1 18.8ZM11.1 25.7L7.4 27.3C8 28.8 9.5 29.7 11.1 29.7 12.7 29.7 14.1 28.8 14.7 27.3L11.1 25.7ZM8.1 18.8L11.7 17.2C11.1 15.7 9.6 14.8 8.1 14.8V18.8ZM4.4 18.8V14.8C2.2 14.8 0.4 16.6 0.4 18.8H4.4ZM4.4 30H0.4C0.4 32.2 2.2 34 4.4 34V30ZM7.3 30V34C9.5 34 11.3 32.2 11.3 30H7.3ZM7.3 23.7L11 22.1C10.2 20.4 8.3 19.4 6.5 19.8 4.6 20.2 3.3 21.9 3.3 23.7H7.3ZM10 30L6.4 31.6C7 33.1 8.4 34 10 34V30ZM12 30V34C13.5 34 15 33.1 15.6 31.6L12 30ZM14.7 23.7H18.7C18.7 21.8 17.4 20.2 15.5 19.8 13.7 19.4 11.8 20.4 11 22.1L14.7 23.7ZM14.7 30H10.7C10.7 32.2 12.5 34 14.7 34V30ZM17.6 30V34C19.8 34 21.6 32.2 21.6 30H17.6ZM17.6 18.8H21.6C21.6 16.6 19.8 14.8 17.6 14.8V18.8ZM10.4 17.2L7.4 24.1 14.7 27.3 17.7 20.4 10.4 17.2ZM14.7 24.1L11.7 17.2 4.4 20.4 7.4 27.3 14.7 24.1ZM8.1 14.8H4.4V22.8H8.1V14.8ZM0.4 18.8V30H8.4V18.8H0.4ZM4.4 34H7.3V26H4.4V34ZM11.3 30V23.7H3.3V30H11.3ZM3.6 25.3L6.4 31.6 13.7 28.4 11 22.1 3.6 25.3ZM10 34H12V26H10V34ZM15.6 31.6L18.4 25.3 11 22.1 8.3 28.4 15.6 31.6ZM10.7 23.7V30H18.7V23.7H10.7ZM14.7 34H17.6V26H14.7V34ZM21.6 30V18.8H13.6V30H21.6ZM17.6 14.8H14.1V22.8H17.6V14.8Z" fill="#fff"/></svg>
