<?xml version="1.0" standalone="no"?>
<!DOCTYPE svg PUBLIC "-//W3C//DTD SVG 20010904//EN"
 "http://www.w3.org/TR/2001/REC-SVG-20010904/DTD/svg10.dtd">
<svg version="1.0" xmlns="http://www.w3.org/2000/svg"
 width="1000.000000pt" height="336.000000pt" viewBox="0 0 1000.000000 336.000000"
 preserveAspectRatio="xMidYMid meet">

<g transform="translate(0.000000,336.000000) scale(0.100000,-0.100000)"
fill="#000000" stroke="none">
<path d="M0 2590 c0 -512 3 -769 10 -765 5 3 10 2 10 -4 0 -5 -4 -13 -10 -16
-5 -3 -10 -18 -10 -33 1 -24 2 -23 14 11 35 98 140 222 248 294 21 14 35 30
31 36 -3 5 -1 7 4 4 6 -4 37 8 70 26 32 18 77 41 100 51 23 10 40 23 36 29 -3
6 -1 7 5 4 13 -9 44 2 37 13 -3 5 5 6 17 2 16 -4 19 -2 13 8 -5 8 -4 11 2 7 8
-5 186 45 211 58 1 1 -3 24 -8 51 -33 160 -41 224 -46 354 -10 230 20 377 101
494 24 35 41 67 37 72 -4 4 -1 4 5 0 7 -4 27 4 45 17 18 14 53 32 78 40 42 14
5 16 -477 16 l-523 1 0 -770z m925 730 c-10 -11 -22 -20 -28 -20 -5 0 1 9 14
20 31 25 37 25 14 0z m-113 -122 c-7 -7 -12 -8 -12 -2 0 14 12 26 19 19 2 -3
-1 -11 -7 -17z m-51 -101 c-10 -9 -11 -8 -5 6 3 10 9 15 12 12 3 -3 0 -11 -7
-18z m-14 -39 c-3 -8 -6 -5 -6 6 -1 11 2 17 5 13 3 -3 4 -12 1 -19z m-23 -133
c-4 -8 -8 -15 -10 -15 -2 0 -4 7 -4 15 0 8 4 15 10 15 5 0 7 -7 4 -15z m-7
-277 c-3 -8 -6 -5 -6 6 -1 11 2 17 5 13 3 -3 4 -12 1 -19z m13 -28 c0 -5 -5
-10 -11 -10 -5 0 -7 5 -4 10 3 6 8 10 11 10 2 0 4 -4 4 -10z m-3 -42 c-3 -8
-6 -5 -6 6 -1 11 2 17 5 13 3 -3 4 -12 1 -19z m33 -175 c7 -32 14 -64 16 -73
3 -8 -2 -1 -10 15 -15 32 -31 115 -23 115 3 0 11 -26 17 -57z m-5 -83 c-3 -5
-14 -10 -23 -9 -14 0 -13 2 3 9 27 11 27 11 20 0z m-90 -30 c-3 -5 -11 -10
-16 -10 -6 0 -7 5 -4 10 3 6 11 10 16 10 6 0 7 -4 4 -10z m-205 -84 c0 -2 -7
-7 -16 -10 -8 -3 -12 -2 -9 4 6 10 25 14 25 6z m-50 -20 c0 -2 -11 -11 -25
-20 -14 -9 -25 -13 -25 -8 0 5 10 14 23 20 27 13 27 13 27 8z m-150 -93 c0 -5
-13 -17 -28 -27 l-27 -19 24 26 c26 28 31 32 31 20z m-80 -68 c-13 -14 -28
-25 -34 -25 -6 0 3 11 19 25 39 31 45 32 15 0z m-59 -53 c-5 -10 -18 -25 -27
-33 -11 -9 -9 -2 6 19 26 35 36 42 21 14z"/>
<path d="M1270 3341 c78 -21 219 -86 306 -141 66 -42 80 -47 68 -29 -4 7 7 1
25 -12 37 -27 42 -38 6 -15 -40 26 -29 11 16 -22 23 -17 48 -28 58 -25 12 4
13 2 3 -4 -16 -12 4 -31 39 -38 13 -3 32 -14 44 -26 19 -21 19 -21 -15 1 l-35
23 30 -32 c43 -45 76 -48 117 -13 18 16 38 27 43 25 6 -2 24 11 40 29 17 18
21 26 10 18 -18 -14 -19 -14 -7 2 8 9 19 15 26 12 7 -3 19 3 27 13 13 17 13
17 -6 3 -18 -14 -19 -14 -7 2 8 9 19 15 26 12 7 -3 19 2 26 11 11 13 10 15 -6
9 -15 -5 -16 -4 -4 4 8 6 17 9 22 6 8 -5 91 47 84 53 -2 3 -17 -3 -33 -12
l-28 -17 25 20 c14 12 34 20 45 19 12 -1 19 3 17 11 -1 8 2 11 7 8 12 -8 93
33 87 43 -3 4 3 7 12 8 9 1 62 17 117 37 l100 35 -675 -1 c-658 0 -673 -1
-610 -17z m120 -27 c0 -2 -9 0 -20 6 -11 6 -20 13 -20 16 0 2 9 0 20 -6 11 -6
20 -13 20 -16z m1039 22 c-10 -9 -69 -36 -69 -32 0 7 52 35 64 36 5 0 7 -2 5
-4z m-948 -63 c13 -17 13 -17 -6 -3 -11 8 -22 16 -24 17 -2 2 0 3 6 3 6 0 17
-8 24 -17z m59 -28 c11 -13 10 -14 -4 -9 -9 3 -16 10 -16 15 0 13 6 11 20 -6z"/>
<path d="M2760 3353 c8 -3 29 -11 47 -19 17 -8 38 -13 45 -12 7 2 12 -2 11 -8
-1 -6 16 -29 38 -50 27 -26 38 -32 33 -19 -4 11 -5 18 -3 15 2 -3 13 -16 24
-30 19 -23 19 -24 1 -10 -22 17 -21 14 15 -55 64 -122 84 -248 76 -463 -4 -91
-15 -199 -27 -257 -23 -114 -23 -118 -11 -111 5 3 15 -1 22 -10 11 -13 9 -15
-17 -10 -16 4 9 -7 56 -24 47 -17 91 -28 98 -25 7 3 10 0 7 -5 -3 -6 -1 -10 5
-10 6 0 59 -22 117 -50 58 -27 109 -47 114 -44 5 3 8 0 7 -8 -2 -7 5 -12 15
-11 10 0 16 -2 13 -5 -10 -9 62 -52 77 -46 15 5 31 -11 32 -31 1 -5 6 -9 13
-8 7 2 11 -2 9 -8 -1 -6 4 -14 12 -17 9 -3 11 0 6 9 -5 8 4 3 18 -10 33 -30
36 -42 5 -15 -13 10 -5 -1 17 -24 40 -43 59 -56 34 -24 -13 15 -12 16 3 3 10
-7 16 -17 13 -21 -6 -10 25 -51 35 -45 5 3 12 0 16 -6 4 -8 3 -9 -4 -5 -18 11
-15 1 15 -57 24 -45 28 -64 28 -142 0 -80 -3 -97 -29 -150 -17 -33 -30 -65
-31 -72 0 -6 -4 -15 -9 -20 -5 -4 -6 -3 -2 5 15 26 -3 10 -44 -40 l-43 -53 44
40 44 40 -39 -42 c-21 -23 -44 -39 -50 -37 -7 3 -25 -10 -41 -28 -17 -18 -20
-24 -7 -14 12 11 22 14 22 9 0 -6 -8 -14 -17 -18 -17 -8 -24 -10 -48 -14 -5
-1 -3 -6 5 -12 13 -9 12 -10 -3 -5 -15 5 -97 -38 -97 -51 0 -2 5 -1 10 2 16
10 11 -1 -7 -16 -11 -10 -14 -10 -9 -2 11 20 3 17 -102 -35 -53 -27 -132 -61
-174 -77 -43 -15 -76 -30 -74 -34 2 -3 -11 -6 -30 -7 -19 0 -36 -3 -39 -6 -3
-3 3 -46 14 -95 56 -248 48 -533 -18 -701 -11 -28 -18 -60 -15 -69 5 -15 4
-16 -5 -3 -7 9 -11 10 -11 3 0 -6 -26 -40 -57 -75 -43 -46 -50 -58 -28 -44
l30 19 -19 -22 c-11 -12 -26 -19 -34 -16 -8 3 -20 1 -27 -5 -7 -5 -30 -16 -51
-24 -34 -13 439 -15 3589 -15 l3628 -1 -1 470 -1 470 -25 -17 c-20 -12 -22
-18 -12 -25 10 -7 8 -8 -4 -4 -10 3 -35 -1 -55 -8 -55 -19 -171 -20 -223 -2
-24 8 -48 12 -53 9 -6 -3 -7 -2 -4 4 4 5 -8 23 -25 39 -17 16 -40 49 -52 74
-20 43 -21 61 -24 463 l-3 417 -95 0 -94 0 0 86 0 85 95 -3 95 -3 0 158 0 157
100 0 101 0 -2 -157 -1 -156 116 2 117 3 -3 -84 -3 -83 -112 -3 -113 -3 -1
-357 c-1 -196 -1 -368 0 -382 5 -70 47 -110 116 -110 42 0 96 25 91 43 -1 6
-1 9 1 4 3 -4 8 -5 13 -2 4 3 19 -23 33 -58 l26 -62 1 1198 0 1197 -3627 -1
c-1996 0 -3621 -3 -3613 -6z m238 -198 c-3 -3 -9 2 -12 12 -6 14 -5 15 5 6 7
-7 10 -15 7 -18z m22 -40 c0 -8 -2 -15 -4 -15 -2 0 -6 7 -10 15 -3 8 -1 15 4
15 6 0 10 -7 10 -15z m29 -98 c0 -21 -1 -21 -9 -2 -12 28 -12 37 0 30 6 -3 10
-16 9 -28z m8 -59 c-3 -7 -5 -2 -5 12 0 14 2 19 5 13 2 -7 2 -19 0 -25z m11
-74 c-3 -14 -5 -12 -10 9 -3 19 -2 25 4 19 6 -6 8 -18 6 -28z m-1 -166 c-2
-29 -3 -8 -3 47 0 55 1 79 3 53 2 -26 2 -71 0 -100z m-7 -188 c0 -11 -4 -20
-9 -20 -5 0 -7 9 -4 20 3 11 7 20 9 20 2 0 4 -9 4 -20z m1783 -27 c-83 -2
-223 -2 -310 0 -87 1 -18 3 152 3 171 0 242 -2 158 -3z m267 -3 c18 -12 2 -12
-25 0 -13 6 -15 9 -5 9 8 0 22 -4 30 -9z m-270 -13 c151 -2 288 -7 305 -11 16
-4 59 -21 95 -39 36 -17 71 -31 78 -30 14 1 97 -75 89 -83 -2 -3 -15 8 -29 23
-13 15 -32 35 -43 43 -11 8 5 -12 35 -45 30 -33 58 -59 62 -58 3 1 12 -4 18
-12 8 -9 8 -15 2 -15 -6 0 -12 3 -15 8 -8 15 3 -15 28 -76 69 -165 32 -377
-88 -510 -23 -26 -34 -41 -24 -33 9 7 17 9 17 5 0 -5 -9 -15 -21 -22 -12 -8
-18 -9 -14 -3 3 6 2 11 -3 11 -14 0 -34 -27 -25 -32 4 -3 3 -4 -4 -2 -6 1 -43
-11 -83 -27 -40 -16 -82 -29 -94 -29 -13 0 -25 -3 -28 -6 -9 -8 82 -140 94
-136 5 1 7 -2 3 -7 -3 -6 2 -22 11 -36 13 -20 19 -23 26 -13 7 9 8 7 4 -7 -3
-12 3 -30 15 -45 14 -17 19 -19 15 -7 -4 11 -2 16 5 12 6 -4 8 -14 5 -22 -7
-18 141 -246 155 -238 5 4 7 0 4 -7 -3 -7 4 -24 15 -38 17 -21 19 -21 14 -5
-5 16 -4 17 4 5 6 -8 8 -18 5 -22 -7 -12 26 -60 37 -53 5 3 12 0 16 -6 5 -8 3
-9 -6 -4 -9 6 -12 4 -8 -6 5 -12 -14 -13 -115 -11 -67 2 -127 8 -134 14 -9 7
-13 7 -13 0 0 -21 27 -27 145 -33 l120 -5 -121 -2 c-108 -2 -123 0 -138 17
-10 11 -15 24 -12 30 3 5 -10 36 -30 70 -26 44 -40 58 -52 54 -13 -4 -14 -3
-4 5 10 7 -2 32 -54 113 -57 89 -105 156 -79 110 5 -10 4 -12 -4 -7 -6 4 -9
11 -6 16 3 5 -4 25 -16 45 -14 23 -24 32 -29 25 -5 -8 -9 -7 -13 5 -4 9 -3 13
3 10 15 -9 12 0 -11 39 -22 38 -36 48 -25 19 4 -10 3 -14 -1 -9 -4 4 -8 18 -8
29 0 12 -6 22 -14 22 -8 0 -16 7 -18 15 -4 13 -3 13 6 0 6 -8 11 -10 11 -4 0
7 -9 22 -21 35 -11 13 -17 18 -13 10 4 -9 3 -12 -4 -7 -6 3 -76 7 -156 9
l-146 2 0 -312 0 -313 -105 0 -105 0 0 796 c0 598 -3 793 -12 788 -6 -4 -9 -3
-6 2 4 5 57 8 120 7 62 -2 237 -4 388 -6z m360 -10 c13 -5 13 -6 -1 -6 -8 -1
-24 6 -35 15 -19 15 -19 15 1 6 11 -5 27 -12 35 -15z m-863 -1169 c-1 -216 -2
-42 -2 387 0 429 1 606 2 393 2 -212 2 -563 0 -780z m-1294 1137 c-3 -9 -8
-14 -10 -11 -3 3 -2 9 2 15 9 16 15 13 8 -4z m2243 -12 c-6 -6 -36 9 -36 18 0
5 9 4 20 -3 10 -7 18 -14 16 -15z m-2259 -45 c-3 -8 -6 -5 -6 6 -1 11 2 17 5
13 3 -3 4 -12 1 -19z m6636 -5 c-23 -2 -64 -2 -90 0 -26 2 -7 3 42 3 50 0 71
-1 48 -3z m-153 -163 l0 -150 -87 2 -88 2 83 3 82 4 0 144 c0 80 2 145 5 145
3 0 5 -67 5 -150z m-6260 24 l25 -15 -25 7 c-14 3 -32 10 -40 15 -13 7 -13 8
0 8 8 0 26 -6 40 -15z m2233 -34 c3 -11 2 -18 -3 -15 -4 3 -10 14 -13 25 -3
11 -2 18 3 15 4 -3 10 -14 13 -25z m-2136 -16 c-7 -7 -37 7 -37 17 0 6 9 5 21
-1 11 -7 19 -14 16 -16z m2773 -98 c0 -2 -7 -7 -16 -10 -8 -3 -12 -2 -9 4 6
10 25 14 25 6z m87 -2 c-3 -3 -12 -4 -19 -1 -8 3 -5 6 6 6 11 1 17 -2 13 -5z
m60 0 c-3 -3 -12 -4 -19 -1 -8 3 -5 6 6 6 11 1 17 -2 13 -5z m98 -4 c25 -11
-1 -11 -35 0 -20 6 -21 8 -5 8 11 0 29 -3 40 -8z m1055 6 c0 -2 -9 -6 -20 -9
-11 -3 -20 -1 -20 4 0 5 9 9 20 9 11 0 20 -2 20 -4z m153 -3 c-7 -2 -21 -2
-30 0 -10 3 -4 5 12 5 17 0 24 -2 18 -5z m72 -3 c13 -6 15 -9 5 -9 -8 0 -22 4
-30 9 -18 12 -2 12 25 0z m1132 4 c-3 -3 -12 -4 -19 -1 -8 3 -5 6 6 6 11 1 17
-2 13 -5z m90 0 c-3 -3 -12 -4 -19 -1 -8 3 -5 6 6 6 11 1 17 -2 13 -5z m83 -4
c0 -5 -7 -7 -15 -4 -8 4 -15 8 -15 10 0 2 7 4 15 4 8 0 15 -4 15 -10z m-2875
-10 c-3 -5 -14 -10 -23 -9 -14 0 -13 2 3 9 27 11 27 11 20 0z m1270 0 c-3 -5
-14 -10 -23 -9 -14 0 -13 2 3 9 27 11 27 11 20 0z m1320 0 c-3 -5 -14 -10 -23
-9 -14 0 -13 2 3 9 27 11 27 11 20 0z m47 5 c3 -3 61 -7 129 -8 110 -2 132 -6
190 -30 37 -16 81 -39 99 -52 18 -14 36 -22 40 -20 4 3 14 -3 21 -13 13 -16
12 -16 -6 -2 -11 8 -7 0 9 -18 32 -34 48 -44 25 -14 -13 15 -12 16 3 3 10 -7
15 -17 12 -23 -8 -13 16 -39 29 -31 6 3 7 1 3 -5 -4 -6 -12 -9 -19 -6 -7 2
-33 -17 -57 -43 -25 -26 -31 -36 -15 -22 47 40 66 48 22 10 -52 -47 -72 -46
-118 4 -22 24 -63 53 -92 66 -45 21 -67 24 -162 24 -100 0 -115 -3 -163 -28
-65 -34 -135 -96 -128 -113 3 -7 0 -16 -6 -20 -7 -5 -8 -2 -3 6 6 9 4 11 -4 6
-7 -5 -10 -14 -7 -22 3 -8 0 -13 -7 -11 -21 4 -59 -131 -64 -228 -2 -49 -1
-85 4 -78 5 6 8 -11 9 -40 0 -53 42 -165 71 -188 11 -10 12 -8 7 7 -8 20 -6
19 16 -10 10 -13 10 -17 3 -12 -31 18 -9 -16 30 -48 66 -54 130 -77 227 -83
71 -4 94 -2 143 17 32 12 70 33 85 47 l27 24 -30 -16 c-30 -16 -30 -16 -6 2
13 10 31 18 39 18 9 0 17 6 20 14 3 9 0 11 -9 6 -8 -5 -1 6 15 23 33 35 37 38
33 20 -1 -7 3 -12 8 -13 18 -1 57 -26 51 -32 -3 -4 -16 2 -28 12 -13 10 1 -5
30 -34 57 -57 59 -63 37 -81 -21 -18 -19 -35 3 -19 9 7 5 0 -11 -17 -15 -17
-33 -31 -40 -31 -6 0 -35 -16 -63 -35 -84 -57 -150 -73 -299 -73 -120 0 -135
2 -197 28 -37 16 -72 26 -77 22 -5 -3 -13 0 -17 6 -4 8 -3 9 4 5 7 -4 12 -5
12 -3 0 9 -91 68 -99 63 -10 -7 -44 29 -47 51 -2 8 -11 25 -22 37 -29 31 -77
123 -96 181 -8 28 -20 86 -25 130 -16 138 0 246 57 365 20 41 36 80 37 87 0 6
4 15 9 20 5 5 6 2 1 -7 -8 -13 -7 -13 8 -1 18 14 24 36 7 26 -21 -13 -9 2 36
45 26 25 44 39 40 33 -10 -18 9 -16 23 1 9 11 9 15 -1 20 -9 4 -9 5 2 5 32 -2
39 2 34 19 -5 13 -4 14 4 3 8 -11 14 -10 36 4 14 9 58 27 98 40 48 15 65 24
52 28 -13 3 -14 5 -3 6 9 0 18 -1 21 -4z m283 -5 c3 -5 1 -10 -4 -10 -6 0 -11
5 -11 10 0 6 2 10 4 10 3 0 8 -4 11 -10z m851 -8 c-55 -1 -103 1 -107 5 -5 4
40 6 99 3 l107 -5 -99 -3z m-3419 -25 c67 -27 135 -71 172 -111 19 -20 27 -23
33 -14 7 10 8 9 7 -2 -3 -19 61 -121 71 -115 4 3 7 -1 7 -8 -1 -6 11 -50 26
-97 20 -60 30 -115 34 -187 3 -56 10 -100 14 -97 16 9 10 -3 -8 -17 -11 -10
-14 -10 -9 -1 6 9 -88 12 -457 12 l-464 0 8 -42 c40 -212 191 -340 396 -339
101 1 262 48 247 73 -4 7 -3 8 5 4 14 -9 64 21 57 33 -3 4 6 19 21 32 14 13
23 18 19 12 -4 -8 -1 -13 9 -13 10 0 13 5 9 13 -5 8 -2 8 9 -2 9 -7 17 -19 17
-25 0 -6 -5 -4 -10 4 -5 8 -10 11 -10 5 0 -5 10 -21 23 -35 12 -14 18 -20 13
-13 -5 8 -4 13 3 13 10 0 15 -14 12 -34 -1 -4 3 -14 10 -22 6 -8 8 -21 3 -31
-4 -10 -8 -21 -8 -25 -1 -3 -5 -10 -10 -15 -5 -5 -6 -3 -2 5 4 6 3 12 -2 12
-13 0 -43 -36 -36 -43 8 -8 -57 -47 -68 -41 -13 8 -88 -28 -81 -39 3 -6 1 -7
-5 -3 -13 8 -133 -14 -127 -23 8 -13 -252 8 -295 23 -24 9 -50 14 -58 11 -7
-2 -11 -1 -8 4 3 5 -9 15 -26 22 -17 7 -51 28 -76 47 -24 18 -47 31 -50 28 -8
-9 -52 35 -46 46 3 4 -6 22 -20 38 -34 41 -83 144 -100 210 -33 131 -28 271
15 388 11 31 22 72 23 90 2 18 8 38 16 45 10 10 10 8 0 -11 -19 -39 -4 -36 19
3 26 44 26 52 4 34 -15 -12 -15 -10 1 8 10 12 21 21 25 20 8 -2 106 94 106
104 0 4 7 14 15 21 12 11 12 11 1 -4 -17 -23 -6 -23 27 0 91 62 173 82 317 78
99 -3 131 -8 182 -29z m1225 22 c29 -7 78 -23 108 -37 30 -14 60 -26 67 -27 6
0 15 -4 20 -9 4 -5 3 -6 -4 -2 -7 4 -13 3 -13 -1 0 -10 40 -37 55 -38 5 0 10
-7 10 -15 0 -8 6 -26 14 -39 11 -19 15 -21 23 -10 7 11 8 9 4 -5 -4 -11 0 -40
9 -65 13 -40 15 -112 13 -486 l-3 -440 -90 0 -90 0 3 42 c2 23 -1 50 -5 58 -8
14 -12 13 -29 -7 -10 -12 -12 -17 -4 -11 14 10 16 7 17 -25 1 -30 0 -32 -5
-11 -8 32 -37 32 -77 1 -50 -39 -134 -64 -236 -70 -83 -4 -108 -1 -170 19 -41
13 -79 23 -86 24 -6 0 -15 4 -20 9 -5 5 -2 6 6 1 10 -6 12 -4 7 4 -5 7 -14 10
-22 7 -8 -3 -13 -2 -11 3 1 4 -18 28 -41 52 -84 84 -119 197 -101 324 5 37 14
75 19 85 5 10 7 27 4 37 -4 13 -3 14 4 5 7 -11 10 -10 16 3 3 9 3 22 -1 27 -3
6 -1 8 5 4 13 -8 44 33 35 47 -3 6 -1 7 5 3 5 -3 23 5 39 18 93 77 243 109
387 81 81 -15 135 -39 208 -91 l48 -34 6 26 c9 36 -4 195 -20 241 -7 21 -19
38 -27 38 -8 1 -13 7 -11 14 3 15 -16 41 -30 41 -5 0 -6 -5 -2 -12 4 -7 3 -8
-5 -4 -6 4 -8 12 -5 18 5 7 1 9 -9 5 -10 -4 -16 -2 -14 5 1 6 -23 19 -53 29
-99 31 -263 9 -344 -46 -68 -46 -96 -69 -96 -78 0 -5 16 5 35 22 20 17 39 31
43 31 13 0 -72 -64 -88 -67 -11 -1 -30 19 -55 57 -21 32 -43 56 -48 53 -6 -4
-7 -1 -2 7 11 18 71 71 106 93 17 11 26 24 22 33 -3 8 0 14 7 14 6 0 8 -4 5
-10 -9 -14 7 -12 30 4 18 12 122 49 170 59 42 9 216 7 267 -4z m63 1 c3 -6 -1
-7 -9 -4 -18 7 -21 14 -7 14 6 0 13 -4 16 -10z m-1240 -21 c5 -5 -5 -4 -23 2
-17 6 -32 13 -32 16 0 7 43 -8 55 -18z m1307 -7 c11 -13 8 -12 -19 2 -18 9
-33 18 -33 20 0 9 41 -8 52 -22z m-536 3 c-11 -8 -25 -15 -30 -15 -6 1 0 7 14
15 32 19 40 18 16 0z m1344 11 c0 -2 -7 -7 -16 -10 -8 -3 -12 -2 -9 4 6 10 25
14 25 6z m500 -17 c0 -4 -7 -6 -15 -3 -8 4 -15 10 -15 15 0 4 7 6 15 3 8 -4
15 -10 15 -15z m-3115 1 c-3 -5 -12 -10 -18 -10 -7 0 -6 4 3 10 19 12 23 12
15 0z m-458 -47 c-3 -10 -5 -2 -5 17 0 19 2 27 5 18 2 -10 2 -26 0 -35z m1072
-20 c2 -2 2 -5 -1 -8 -2 -3 -18 10 -34 28 l-29 32 30 -25 c17 -14 32 -26 34
-27z m535 -8 c-21 -19 -43 -34 -48 -35 -11 0 -11 1 38 39 52 42 59 39 10 -4z
m-1611 -45 c-3 -12 -8 -19 -11 -16 -5 6 5 36 12 36 2 0 2 -9 -1 -20z m2004
-18 c6 -4 -12 -7 -40 -8 -32 0 -44 2 -31 7 25 10 56 11 71 1z m-838 -36 c-3
-3 -11 5 -18 17 -13 21 -12 21 5 5 10 -10 16 -20 13 -22z m888 28 c-3 -3 -12
-4 -19 -1 -8 3 -5 6 6 6 11 1 17 -2 13 -5z m1246 -1 c-7 -2 -21 -2 -30 0 -10
3 -4 5 12 5 17 0 24 -2 18 -5z m70 0 c-7 -2 -21 -2 -30 0 -10 3 -4 5 12 5 17
0 24 -2 18 -5z m-1518 -13 c-3 -5 -14 -10 -23 -10 -15 0 -15 2 -2 10 20 13 33
13 25 0z m255 0 c0 -5 -2 -10 -4 -10 -3 0 -8 5 -11 10 -3 6 -1 10 4 10 6 0 11
-4 11 -10z m1137 4 c-3 -3 -12 -4 -19 -1 -8 3 -5 6 6 6 11 1 17 -2 13 -5z
m-72 -14 c-3 -5 -12 -10 -18 -10 -7 0 -6 4 3 10 19 12 23 12 15 0z m823 -377
l-3 -388 -2 382 -3 382 -83 4 -82 3 88 2 87 2 -2 -387z m385 380 c-29 -2 -78
-2 -110 0 -32 2 -8 3 52 3 61 0 87 -1 58 -3z m-6128 -34 c9 -17 15 -33 13 -35
-3 -2 -12 12 -21 31 -21 43 -13 47 8 4z m3530 21 c-3 -5 -16 -15 -28 -21 -19
-9 -19 -8 3 10 28 23 34 26 25 11z m665 -18 c0 -15 -2 -15 -10 -2 -13 20 -13
33 0 25 6 -3 10 -14 10 -23z m-2469 -5 c-10 -9 -11 -8 -5 6 3 10 9 15 12 12 3
-3 0 -11 -7 -18z m3534 5 c-3 -3 -11 0 -18 7 -9 10 -8 11 6 5 10 -3 15 -9 12
-12z m-395 -2 c0 -5 -5 -10 -11 -10 -5 0 -7 5 -4 10 3 6 8 10 11 10 2 0 4 -4
4 -10z m-290 -4 c0 -3 -4 -8 -10 -11 -5 -3 -10 -1 -10 4 0 6 5 11 10 11 6 0
10 -2 10 -4z m-1228 -61 c5 -11 -2 -6 -16 10 -14 17 -25 35 -25 40 0 11 25
-20 41 -50z m1473 25 c-10 -11 -23 -20 -29 -20 -6 0 1 11 14 24 30 28 41 25
15 -4z m487 10 c12 -11 17 -20 11 -20 -5 0 -18 9 -28 20 -10 11 -15 20 -11 20
4 0 16 -9 28 -20z m-3592 -10 c-6 -11 -13 -20 -16 -20 -2 0 0 9 6 20 6 11 13
20 16 20 2 0 0 -9 -6 -20z m2833 -5 c-3 -9 -8 -14 -10 -11 -3 3 -2 9 2 15 9
16 15 13 8 -4z m-333 -10 c0 -8 -2 -15 -4 -15 -2 0 -6 7 -10 15 -3 8 -1 15 4
15 6 0 10 -7 10 -15z m-2274 -24 c-3 -4 -10 -21 -16 -36 -6 -15 -13 -25 -16
-22 -6 6 23 67 32 67 3 0 3 -4 0 -9z m2047 -11 c3 -11 1 -20 -4 -20 -5 0 -9 9
-9 20 0 11 2 20 4 20 2 0 6 -9 9 -20z m537 -1 c-7 -11 -14 -19 -16 -16 -7 7 7
37 17 37 6 0 5 -9 -1 -21z m-4481 -49 c1 -13 0 -13 -9 0 -5 8 -9 26 -9 40 l1
25 8 -25 c4 -14 8 -32 9 -40z m1635 35 c-9 -14 -18 -25 -20 -25 -2 0 2 11 8
25 6 14 15 25 20 25 5 0 1 -11 -8 -25z m1324 -40 c-3 -3 -9 2 -12 12 -6 14 -5
15 5 6 7 -7 10 -15 7 -18z m1733 -19 c-14 -36 -22 -33 -9 5 6 16 12 28 14 26
3 -2 0 -16 -5 -31z m-3097 9 c-4 -8 -11 -15 -16 -15 -6 0 -5 6 2 15 7 8 14 15
16 15 2 0 1 -7 -2 -15z m2353 -107 c-2 -24 -4 -5 -4 42 0 47 2 66 4 43 2 -24
2 -62 0 -85z m220 -481 c-1 -111 -2 -20 -2 203 0 223 1 314 2 202 2 -111 2
-293 0 -405z m277 556 c-4 -21 -11 -45 -16 -53 -7 -12 -8 -10 -4 5 2 11 7 35
11 53 9 45 17 40 9 -5z m-4444 12 c0 -8 -4 -15 -10 -15 -5 0 -7 7 -4 15 4 8 8
15 10 15 2 0 4 -7 4 -15z m3530 -15 c0 -5 -10 -10 -22 -9 -22 0 -22 1 -3 9 11
5 21 9 23 9 1 1 2 -3 2 -9z m77 4 c-3 -3 -12 -4 -19 -1 -8 3 -5 6 6 6 11 1 17
-2 13 -5z m73 -4 c0 -13 -11 -13 -30 0 -12 8 -11 10 8 10 12 0 22 -4 22 -10z
m-200 -9 c0 -5 -10 -11 -22 -14 -22 -6 -22 -6 -4 8 23 17 26 18 26 6z m265 -1
c19 -8 19 -9 -2 -9 -12 -1 -25 4 -28 9 -7 12 2 12 30 0z m-3765 -47 c-11 -17
-11 -17 -6 0 3 10 7 26 7 35 1 15 2 15 6 0 2 -10 -1 -25 -7 -35z m4693 27 c-3
-11 -7 -20 -9 -20 -2 0 -4 9 -4 20 0 11 4 20 9 20 5 0 7 -9 4 -20z m-1696 -22
c-3 -7 -5 -2 -5 12 0 14 2 19 5 13 2 -7 2 -19 0 -25z m453 28 c0 -6 -83 -46
-87 -42 -2 2 15 13 39 25 46 22 48 23 48 17z m410 -21 c14 -8 21 -14 15 -14
-5 0 -21 6 -35 14 -14 8 -20 14 -15 14 6 0 21 -6 35 -14z m-2004 -47 c-3 -22
-8 -44 -12 -47 -3 -3 -3 8 0 24 2 17 5 38 5 48 1 9 4 17 7 17 3 0 3 -19 0 -42z
m-396 12 c-14 -11 -32 -19 -40 -19 -8 0 1 8 20 19 45 25 51 25 20 0z m2476
-18 c-4 -3 -14 2 -24 12 -16 18 -16 18 6 6 13 -6 21 -14 18 -18z m505 -13 c-6
-16 -10 -18 -10 -7 -1 22 12 55 16 42 2 -6 -1 -22 -6 -35z m-4451 16 c0 -8 -4
-15 -10 -15 -5 0 -7 7 -4 15 4 8 8 15 10 15 2 0 4 -7 4 -15z m3017 -47 c-2
-13 -4 -5 -4 17 -1 22 1 32 4 23 2 -10 2 -28 0 -40z m-3039 2 c-7 -10 -14 -18
-15 -16 -6 6 9 36 18 36 5 0 4 -9 -3 -20z m1879 -42 c-3 -8 -6 -5 -6 6 -1 11
2 17 5 13 3 -3 4 -12 1 -19z m2590 0 c-3 -8 -6 -5 -6 6 -1 11 2 17 5 13 3 -3
4 -12 1 -19z m6 -48 c3 -11 1 -20 -4 -20 -5 0 -9 9 -9 20 0 11 2 20 4 20 2 0
6 -9 9 -20z m-2585 -38 c4 -35 -5 -25 -12 12 -3 16 -2 25 1 22 4 -4 9 -19 11
-34z m2841 -77 c0 -5 -4 -3 -9 5 -5 8 -9 22 -9 30 0 16 17 -16 18 -35z m-227
-26 c9 -33 14 -58 10 -55 -10 11 -40 116 -33 116 4 0 14 -27 23 -61z m-1275
19 c-3 -8 -6 -5 -6 6 -1 11 2 17 5 13 3 -3 4 -12 1 -19z m-1668 -73 c0 -5 -6
-1 -14 9 -8 11 -15 24 -15 30 0 5 7 1 15 -10 8 -10 14 -23 14 -29z m1658 13
c-3 -7 -5 -2 -5 12 0 14 2 19 5 13 2 -7 2 -19 0 -25z m-3468 19 c-2 -1 -13 -9
-24 -17 -19 -14 -19 -14 -6 3 7 9 18 17 24 17 6 0 8 -1 6 -3z m1561 -63 c18
-25 30 -47 28 -49 -1 -2 -18 19 -36 46 -41 62 -34 65 8 3z m874 10 c3 -8 2
-12 -4 -9 -6 3 -10 10 -10 16 0 14 7 11 14 -7z m-2535 -7 c-16 -13 -79 -48
-79 -44 0 7 63 47 74 47 5 0 7 -1 5 -3z m2311 -42 c0 -5 -5 -3 -10 5 -5 8 -10
20 -10 25 0 6 5 3 10 -5 5 -8 10 -19 10 -25z m2590 0 c0 -5 -5 -3 -10 5 -5 8
-10 20 -10 25 0 6 5 3 10 -5 5 -8 10 -19 10 -25z m-2942 3 c7 -13 19 -33 28
-45 9 -13 14 -23 11 -23 -3 0 -20 20 -37 45 -17 25 -27 45 -22 45 5 0 14 -10
20 -22z m689 -58 c7 0 13 -5 13 -11 0 -7 -11 -4 -27 6 -34 21 -83 66 -83 75 0
4 19 -10 42 -32 23 -21 47 -38 55 -38z m937 54 c3 -8 2 -12 -4 -9 -6 3 -10 10
-10 16 0 14 7 11 14 -7z m1641 -48 c14 -12 -27 11 -47 27 -10 8 -18 18 -18 22
0 7 13 -2 65 -49z m-5370 14 c-3 -5 -12 -10 -18 -10 -7 0 -6 4 3 10 19 12 23
12 15 0z m1869 -26 c3 -8 2 -12 -4 -9 -6 3 -10 10 -10 16 0 14 7 11 14 -7z
m-1958 -9 c-11 -8 -25 -15 -30 -15 -6 1 0 7 14 15 32 19 40 18 16 0z m5518 0
c20 -8 36 -17 36 -20 0 -6 -63 16 -74 26 -14 13 -3 11 38 -6z m820 0 c3 -8 1
-15 -4 -15 -6 0 -10 7 -10 15 0 8 2 15 4 15 2 0 6 -7 10 -15z m-3734 -16 c0
-6 -4 -7 -10 -4 -5 3 -10 11 -10 16 0 6 5 7 10 4 6 -3 10 -11 10 -16z m347 -5
c-6 -6 -47 9 -47 17 0 5 11 3 25 -3 14 -6 24 -13 22 -14z m2238 16 c3 -5 1
-10 -4 -10 -6 0 -11 5 -11 10 0 6 2 10 4 10 3 0 8 -4 11 -10z m-1326 -30 c11
-24 11 -24 -3 -6 -9 11 -16 24 -16 30 0 12 5 7 19 -24z m2866 21 c-6 -5 -21
-11 -35 -15 -21 -5 -20 -3 5 9 35 17 42 18 30 6z m78 -11 c3 -11 1 -18 -4 -14
-5 3 -9 12 -9 20 0 20 7 17 13 -6z m-3778 -10 c8 -13 -5 -13 -25 0 -13 8 -13
10 2 10 9 0 20 -4 23 -10z m150 0 c-27 -12 -35 -12 -35 0 0 6 12 10 28 9 24 0
25 -1 7 -9z m2493 3 c-10 -2 -26 -2 -35 0 -10 3 -2 5 17 5 19 0 27 -2 18 -5z
m985 0 c-7 -2 -21 -2 -30 0 -10 3 -4 5 12 5 17 0 24 -2 18 -5z m-6793 -17 c0
-11 -19 -15 -25 -6 -3 5 1 10 9 10 9 0 16 -2 16 -4z m6493 -16 c3 -11 1 -18
-4 -14 -5 3 -9 12 -9 20 0 20 7 17 13 -6z m-3646 -50 c14 -11 22 -20 17 -20
-12 1 -61 39 -51 40 5 0 20 -9 34 -20z m-2844 -10 c3 -11 1 -20 -4 -20 -5 0
-9 9 -9 20 0 11 2 20 4 20 2 0 6 -9 9 -20z m2175 -5 c-3 -3 -9 2 -12 12 -6 14
-5 15 5 6 7 -7 10 -15 7 -18z m3268 3 l19 -21 -27 18 c-29 18 -34 25 -20 25 5
0 17 -10 28 -22z m644 -23 c-19 -14 -36 -25 -39 -25 -10 0 53 49 63 50 6 0 -5
-11 -24 -25z m-3170 -15 c0 -5 -2 -10 -4 -10 -3 0 -8 5 -11 10 -3 6 -1 10 4
10 6 0 11 -4 11 -10z m1729 6 c-2 -2 -15 -9 -29 -15 -24 -11 -24 -11 -6 3 16
13 49 24 35 12z m1912 -13 c13 -16 12 -17 -3 -4 -17 13 -22 21 -14 21 2 0 10
-8 17 -17z m-6543 -44 c-3 -8 -7 -3 -11 10 -4 17 -3 21 5 13 5 -5 8 -16 6 -23z
m2983 13 c-7 -2 -18 1 -23 6 -8 8 -4 9 13 5 13 -4 18 -8 10 -11z m1195 2 c18
-14 18 -14 -6 -3 -31 14 -36 19 -24 19 6 0 19 -7 30 -16z m371 0 c-16 -9 -31
-13 -34 -10 -3 3 5 10 18 15 37 15 47 12 16 -5z m1003 6 c0 -5 -7 -7 -15 -4
-8 4 -15 8 -15 10 0 2 7 4 15 4 8 0 15 -4 15 -10z m426 -5 c-20 -15 -36 -19
-36 -10 0 5 38 23 50 24 3 0 -4 -6 -14 -14z m-4523 -12 c-29 -2 -77 -2 -105 0
-29 2 -6 3 52 3 58 0 81 -1 53 -3z m1598 -11 c-7 -2 -18 1 -23 6 -8 8 -4 9 13
5 13 -4 18 -8 10 -11z m304 8 c-3 -5 -12 -10 -18 -10 -7 0 -6 4 3 10 19 12 23
12 15 0z m881 -8 c-10 -2 -22 0 -28 6 -6 6 0 7 19 4 21 -5 23 -7 9 -10z m259
8 c-3 -5 -12 -10 -18 -10 -7 0 -6 4 3 10 19 12 23 12 15 0z m2130 -8 c-3 -3
-11 0 -18 7 -9 10 -8 11 6 5 10 -3 15 -9 12 -12z m-2180 -2 c-3 -5 -12 -10
-18 -10 -7 0 -6 4 3 10 19 12 23 12 15 0z m1192 4 c-3 -3 -12 -4 -19 -1 -8 3
-5 6 6 6 11 1 17 -2 13 -5z m38 -12 c-3 -3 -11 0 -18 7 -9 10 -8 11 6 5 10 -3
15 -9 12 -12z m-2548 2 c-3 -3 -12 -4 -19 -1 -8 3 -5 6 6 6 11 1 17 -2 13 -5z
m40 0 c-3 -3 -12 -4 -19 -1 -8 3 -5 6 6 6 11 1 17 -2 13 -5z m81 -1 c-10 -2
-26 -2 -35 0 -10 3 -2 5 17 5 19 0 27 -2 18 -5z m1155 0 c-7 -2 -19 -2 -25 0
-7 3 -2 5 12 5 14 0 19 -2 13 -5z m1320 0 c-7 -2 -19 -2 -25 0 -7 3 -2 5 12 5
14 0 19 -2 13 -5z m110 0 c-7 -2 -21 -2 -30 0 -10 3 -4 5 12 5 17 0 24 -2 18
-5z m950 0 c-7 -2 -21 -2 -30 0 -10 3 -4 5 12 5 17 0 24 -2 18 -5z m-6773 -58
c0 -5 -5 -3 -10 5 -5 8 -10 20 -10 25 0 6 5 3 10 -5 5 -8 10 -19 10 -25z m8
-95 l0 -25 -8 25 c-4 14 -8 36 -8 50 l0 25 8 -25 c4 -14 8 -36 8 -50z m-1
-132 c-2 -18 -4 -4 -4 32 0 36 2 50 4 33 2 -18 2 -48 0 -65z m-5 -105 c-3 -16
-7 -22 -10 -15 -4 13 4 42 11 42 2 0 2 -12 -1 -27z m-34 -173 c-5 -17 -15 -33
-21 -37 -5 -3 -7 -2 -4 4 4 6 11 22 16 37 14 36 22 33 9 -4z m-88 -171 c-7
-11 -14 -18 -17 -15 -3 3 0 12 7 21 18 21 23 19 10 -6z"/>
<path d="M4560 2007 l0 -299 253 4 c211 3 258 6 290 20 21 10 36 22 32 28 -3
5 0 7 8 4 18 -6 80 44 73 61 -2 6 0 18 6 26 8 11 9 10 4 -3 -10 -32 3 -19 26
25 23 46 41 216 20 203 -6 -3 -8 1 -5 13 5 20 -32 102 -45 98 -4 -1 -25 13
-47 31 -22 17 -36 32 -33 32 4 0 23 -14 43 -31 19 -17 35 -26 35 -21 0 17 -80
70 -129 86 -35 12 -106 16 -289 18 l-242 3 0 -298z m495 273 c3 -5 2 -10 -4
-10 -5 0 -13 5 -16 10 -3 6 -2 10 4 10 5 0 13 -4 16 -10z m45 -10 c8 -5 11
-10 5 -10 -5 0 -17 5 -25 10 -8 5 -10 10 -5 10 6 0 17 -5 25 -10z m149 -150
c11 -24 11 -24 -3 -6 -9 11 -16 24 -16 30 0 12 5 7 19 -24z m8 -206 c-6 -20
-13 -32 -14 -27 -4 11 14 63 21 63 2 0 -1 -16 -7 -36z m-177 -174 c-8 -5 -22
-9 -30 -9 -10 0 -8 3 5 9 27 12 43 12 25 0z m-53 -6 c-10 -11 -58 -13 -51 -3
3 5 17 9 31 9 15 0 23 -3 20 -6z"/>
<path d="M8404 1918 l-29 -33 33 29 c17 17 32 31 32 33 0 8 -8 1 -36 -29z"/>
<path d="M9099 1173 c-13 -16 -12 -17 4 -4 16 13 21 21 13 21 -2 0 -10 -8 -17
-17z"/>
<path d="M8415 1020 c10 -11 20 -20 22 -20 2 0 -2 9 -9 20 -7 11 -17 20 -22
20 -5 0 -1 -9 9 -20z"/>
<path d="M9189 1003 c-13 -16 -12 -17 4 -4 16 13 21 21 13 21 -2 0 -10 -8 -17
-17z"/>
<path d="M6185 1923 c-54 -5 -136 -33 -130 -44 4 -5 0 -6 -8 -3 -8 3 -20 -2
-27 -11 -11 -13 -10 -15 6 -9 15 5 16 4 4 -4 -8 -6 -18 -8 -23 -5 -5 3 -22 -7
-38 -23 -29 -28 -40 -52 -16 -38 8 5 8 2 -2 -9 -15 -18 -26 -23 -16 -7 3 6 4
10 2 10 -17 0 -69 -125 -80 -192 l-4 -28 368 0 369 0 0 22 c0 39 -32 138 -43
131 -6 -3 -7 -1 -3 5 10 16 -12 54 -26 46 -7 -5 -8 -2 -3 5 9 16 -46 74 -100
106 -63 37 -150 55 -230 48z m48 -20 c-13 -2 -33 -2 -45 0 -13 2 -3 4 22 4 25
0 35 -2 23 -4z m116 -9 c13 -11 -8 -10 -34 2 l-30 13 30 -6 c17 -3 32 -7 34
-9z m-229 2 c0 -3 -4 -8 -10 -11 -5 -3 -10 -1 -10 4 0 6 5 11 10 11 6 0 10 -2
10 -4z m330 -58 c0 -5 -9 -3 -20 4 -11 7 -20 16 -20 20 0 5 9 3 20 -4 11 -7
20 -16 20 -20z m40 -38 c6 -11 8 -20 6 -20 -3 0 -10 9 -16 20 -6 11 -8 20 -6
20 3 0 10 -9 16 -20z m-570 -80 c-6 -11 -13 -20 -16 -20 -2 0 0 9 6 20 6 11
13 20 16 20 2 0 0 -9 -6 -20z m-23 -52 c-3 -8 -6 -5 -6 6 -1 11 2 17 5 13 3
-3 4 -12 1 -19z m672 -38 c0 -10 -3 -8 -9 5 -12 27 -12 43 0 25 5 -8 9 -22 9
-30z m-692 -52 c-3 -7 -5 -2 -5 12 0 14 2 19 5 13 2 -7 2 -19 0 -25z m530 -5
c-98 -2 -256 -2 -350 0 -95 1 -14 3 178 2 193 0 270 -1 172 -2z"/>
<path d="M6580 1155 c-7 -9 -8 -15 -2 -15 5 0 12 7 16 15 3 8 4 15 2 15 -2 0
-9 -7 -16 -15z"/>
<path d="M5815 1030 c10 -11 20 -18 23 -16 5 6 -23 36 -34 36 -4 0 1 -9 11
-20z"/>
<path d="M6590 959 l-25 -20 33 16 c17 8 32 18 32 20 0 10 -16 4 -40 -16z"/>
<path d="M7387 1488 c-89 -19 -167 -85 -187 -158 -20 -71 -4 -200 23 -183 6 3
7 1 3 -6 -8 -13 30 -71 46 -71 7 0 2 10 -10 23 -12 13 -22 27 -22 31 0 5 10
-4 23 -20 12 -16 21 -32 20 -36 -2 -4 16 -18 40 -30 31 -16 65 -23 128 -26
106 -5 188 18 263 76 60 45 70 74 64 190 -4 78 -6 84 -38 117 -19 20 -40 33
-48 30 -7 -2 -10 -1 -7 5 7 11 -35 34 -94 50 -56 15 -155 19 -204 8z m36 -15
c-7 -2 -21 -2 -30 0 -10 3 -4 5 12 5 17 0 24 -2 18 -5z m65 0 c-10 -2 -26 -2
-35 0 -10 3 -2 5 17 5 19 0 27 -2 18 -5z m55 0 c-7 -2 -19 -2 -25 0 -7 3 -2 5
12 5 14 0 19 -2 13 -5z m-219 -27 c-10 -8 -21 -12 -24 -10 -5 6 21 24 34 24 6
0 1 -6 -10 -14z m303 8 c-3 -3 -12 -4 -19 -1 -8 3 -5 6 6 6 11 1 17 -2 13 -5z
m38 -22 c-3 -3 -11 0 -18 7 -9 10 -8 11 6 5 10 -3 15 -9 12 -12z m-402 -32
c-15 -16 -29 -30 -31 -30 -8 0 21 41 36 49 26 16 26 13 -5 -19z m495 -139 l-2
-106 -3 105 c-3 80 -8 109 -21 125 -17 20 -17 20 6 1 21 -18 22 -26 20 -125z
m-547 32 c-8 -15 -10 -15 -11 -2 0 17 10 32 18 25 2 -3 -1 -13 -7 -23z m539
-167 c0 -3 -4 -8 -10 -11 -5 -3 -10 -1 -10 4 0 6 5 11 10 11 6 0 10 -2 10 -4z
m-70 -51 c-7 -9 -15 -13 -19 -10 -3 3 1 10 9 15 21 14 24 12 10 -5z m-335 -25
c3 -5 2 -10 -4 -10 -5 0 -13 5 -16 10 -3 6 -2 10 4 10 5 0 13 -4 16 -10z m285
6 c0 -3 -4 -8 -10 -11 -5 -3 -10 -1 -10 4 0 6 5 11 10 11 6 0 10 -2 10 -4z
m-35 -15 c-6 -5 -28 -11 -50 -14 l-40 -6 40 14 c49 16 62 18 50 6z m-201 -10
c4 -5 -3 -7 -14 -4 -23 6 -26 13 -6 13 8 0 17 -4 20 -9z"/>
<path d="M1050 3177 c-19 -7 -35 -17 -35 -24 0 -6 -4 -15 -9 -20 -5 -5 -6 -3
-2 5 4 6 3 12 -2 12 -13 0 -58 -87 -77 -150 -20 -65 -28 -294 -14 -385 18
-119 42 -240 48 -248 4 -4 50 1 102 12 52 11 158 27 237 37 78 9 142 20 142
24 0 4 -24 5 -52 2 -71 -6 -58 4 16 13 47 5 57 4 51 -7 -4 -7 7 3 24 22 17 19
28 41 26 48 -3 7 -1 11 4 8 11 -7 28 14 28 35 0 19 43 78 57 78 5 1 1 -9 -10
-21 -32 -36 -47 -58 -41 -58 3 0 23 22 44 49 21 26 62 76 91 110 29 34 50 66
47 71 -3 4 3 14 13 21 16 13 16 12 3 -6 -13 -18 -12 -18 8 1 24 22 21 50 -4
40 -7 -2 -21 5 -32 17 -18 22 -18 22 3 7 11 -8 -7 11 -40 42 -34 32 -66 56
-73 53 -7 -2 -15 1 -19 7 -5 7 -2 8 6 3 9 -6 11 -4 6 4 -5 7 -14 10 -20 8 -7
-3 -19 -1 -27 5 -11 8 -10 8 5 4 16 -6 17 -4 6 9 -7 9 -19 14 -25 11 -7 -2
-18 0 -26 6 -11 7 -9 8 6 4 40 -12 -28 33 -118 79 -116 59 -165 74 -179 54 -8
-11 -9 -11 -5 2 9 29 -95 39 -163 16z m89 -1 c-2 -2 -22 -6 -44 -9 -27 -4 -35
-3 -25 3 14 9 79 15 69 6z m44 -13 c-7 -2 -19 -2 -25 0 -7 3 -2 5 12 5 14 0
19 -2 13 -5z m116 -29 c14 -12 -19 -1 -35 12 -18 14 -18 14 6 3 14 -6 27 -13
29 -15z m52 -22 c-7 -2 -18 1 -23 6 -8 8 -4 9 13 5 13 -4 18 -8 10 -11z m-389
-64 c-7 -7 -12 -8 -12 -2 0 14 12 26 19 19 2 -3 -1 -11 -7 -17z m524 -9 c4 -8
1 -8 -14 0 -12 6 -24 16 -28 22 -4 8 -1 8 14 0 12 -6 24 -16 28 -22z m-545
-42 c-10 -9 -11 -8 -5 6 3 10 9 15 12 12 3 -3 0 -11 -7 -18z m-1 -42 c0 -14
-4 -25 -9 -25 -4 0 -6 11 -3 25 2 14 6 25 8 25 2 0 4 -11 4 -25z m701 -22 c13
-15 12 -15 -8 -4 -24 12 -29 21 -14 21 5 0 15 -7 22 -17z m-716 -98 c-1 -14
-5 -28 -8 -31 -5 -5 -3 43 2 54 5 11 9 -3 6 -23z m5 -107 c0 -12 -3 -18 -7
-14 -10 10 -11 46 -1 40 4 -3 8 -15 8 -26z m760 19 c0 -2 -10 -12 -21 -23 -22
-19 -22 -19 -8 4 12 19 29 30 29 19z m-50 -57 c0 -5 -5 -10 -11 -10 -5 0 -7 5
-4 10 3 6 8 10 11 10 2 0 4 -4 4 -10z m-713 -62 c-3 -8 -6 -5 -6 6 -1 11 2 17
5 13 3 -3 4 -12 1 -19z m13 -28 c0 -5 -2 -10 -4 -10 -3 0 -8 5 -11 10 -3 6 -1
10 4 10 6 0 11 -4 11 -10z m536 -118 c-17 -16 -18 -16 -5 5 7 12 15 20 18 17
3 -2 -3 -12 -13 -22z m-517 -32 c0 -9 -4 -8 -9 5 -5 11 -9 27 -9 35 0 9 4 8 9
-5 5 -11 9 -27 9 -35z m370 -14 c-2 -2 -22 -6 -44 -9 -27 -4 -35 -3 -25 3 14
9 79 15 69 6z m-109 -10 c0 -2 -7 -7 -16 -10 -8 -3 -12 -2 -9 4 6 10 25 14 25
6z m-85 -16 c-11 -5 -29 -8 -40 -8 -16 0 -15 2 5 8 34 11 60 11 35 0z m-68
-16 c-3 -3 -12 -4 -19 -1 -8 3 -5 6 6 6 11 1 17 -2 13 -5z m-80 -10 c-3 -3
-12 -4 -19 -1 -8 3 -5 6 6 6 11 1 17 -2 13 -5z"/>
<path d="M2585 3185 c-5 -2 -29 -9 -53 -15 -23 -6 -40 -15 -37 -20 3 -6 0 -7
-8 -5 -7 3 -30 -1 -50 -10 -41 -17 -50 -30 -14 -20 19 5 20 4 4 -5 -9 -6 -21
-9 -26 -5 -12 7 -62 -16 -56 -26 3 -4 0 -11 -6 -15 -8 -4 -9 -3 -5 4 11 18 -3
14 -30 -7 -13 -10 -21 -21 -18 -24 3 -3 -3 -4 -13 -3 -9 0 -18 -4 -18 -11 0
-6 -4 -15 -9 -20 -5 -5 -6 -3 -2 5 11 18 -9 15 -25 -5 -10 -11 -10 -14 -1 -9
18 11 15 1 -5 -15 -11 -10 -14 -10 -9 -1 12 20 -9 14 -29 -8 -18 -20 -18 -21
1 -14 20 8 20 6 -10 -16 -13 -10 -17 -10 -12 -2 4 6 4 12 -1 12 -12 -1 -66
-50 -61 -56 3 -2 11 2 18 11 7 8 16 15 20 15 5 0 -15 -22 -43 -49 -29 -27 -54
-48 -56 -45 -3 2 11 18 30 34 19 16 29 29 23 30 -5 0 -24 -15 -41 -32 l-31
-33 39 -40 c21 -22 39 -37 39 -33 0 4 -7 14 -16 22 -8 9 -11 16 -6 16 5 0 17
-12 27 -26 9 -15 12 -23 6 -20 -23 15 -10 -12 21 -40 17 -16 27 -22 23 -14 -5
10 -1 8 13 -4 25 -21 31 -36 7 -16 -9 8 -15 9 -15 2 0 -12 19 -27 35 -27 5 0
10 -7 10 -15 0 -20 104 -160 117 -157 6 1 13 -5 15 -13 4 -13 3 -13 -6 0 -6 8
-11 10 -11 4 0 -23 27 -32 135 -43 60 -7 168 -23 240 -37 71 -13 134 -24 139
-24 4 0 6 11 3 25 -2 14 -2 23 2 20 10 -10 29 100 43 242 24 261 -29 481 -128
528 -28 13 -132 20 -159 10z m98 -12 c-13 -2 -35 -2 -50 0 -16 2 -5 4 22 4 28
0 40 -2 28 -4z m-118 -13 c-3 -5 -11 -10 -16 -10 -6 0 -7 5 -4 10 3 6 11 10
16 10 6 0 7 -4 4 -10z m211 -22 l19 -23 -25 20 c-14 11 -27 21 -29 22 -2 2 0
3 6 3 5 0 18 -10 29 -22z m43 -72 c-3 -3 -11 5 -18 17 -13 21 -12 21 5 5 10
-10 16 -20 13 -22z m14 -36 c3 -11 1 -18 -4 -14 -5 3 -9 12 -9 20 0 20 7 17
13 -6z m24 -132 c-3 -8 -6 -5 -6 6 -1 11 2 17 5 13 3 -3 4 -12 1 -19z m-627
-303 c14 -19 14 -19 -2 -6 -10 7 -18 18 -18 24 0 6 1 8 3 6 1 -2 9 -13 17 -24z
m31 -42 c13 -16 12 -17 -3 -4 -10 7 -18 15 -18 17 0 8 8 3 21 -13z m586 -15
c-3 -8 -6 -5 -6 6 -1 11 2 17 5 13 3 -3 4 -12 1 -19z m-549 -28 c7 -11 11 -20
9 -20 -2 0 -12 9 -22 20 -10 11 -14 20 -9 20 5 0 15 -9 22 -20z m545 -5 c-3
-9 -8 -14 -10 -11 -3 3 -2 9 2 15 9 16 15 13 8 -4z m-473 -49 c0 -11 -19 -15
-25 -6 -3 5 1 10 9 10 9 0 16 -2 16 -4z m58 -13 c-10 -2 -26 -2 -35 0 -10 3
-2 5 17 5 19 0 27 -2 18 -5z m70 -10 c-10 -2 -26 -2 -35 0 -10 3 -2 5 17 5 19
0 27 -2 18 -5z m92 -13 c8 -5 11 -10 5 -10 -5 0 -17 5 -25 10 -8 5 -10 10 -5
10 6 0 17 -5 25 -10z m171 -38 c-7 -2 -18 1 -23 6 -8 8 -4 9 13 5 13 -4 18 -8
10 -11z m50 -10 c-7 -2 -18 1 -23 6 -8 8 -4 9 13 5 13 -4 18 -8 10 -11z"/>
<path d="M1934 2999 c-18 -19 -36 -28 -47 -25 -15 4 -16 2 -6 -10 10 -13 18
-9 51 23 21 20 38 38 38 40 0 7 -8 1 -36 -28z"/>
<path d="M1880 2695 c-7 -8 -10 -18 -7 -22 3 -4 -8 -24 -24 -43 -16 -19 -29
-30 -29 -25 0 5 12 23 27 39 16 18 10 14 -15 -9 -39 -36 -57 -66 -30 -49 6 4
3 -4 -8 -18 -10 -14 -21 -24 -23 -22 -2 2 2 12 10 21 11 15 10 15 -9 -1 -12
-11 -21 -26 -20 -35 2 -9 -3 -16 -11 -16 -7 0 -24 -14 -37 -31 l-24 -31 210 0
c116 0 210 1 210 3 0 4 -137 172 -176 216 -27 30 -35 34 -44 23z m122 -127
c22 -27 36 -48 31 -48 -4 0 -22 20 -40 43 -18 23 -42 53 -55 67 -13 14 -29 34
-37 45 -16 24 46 -42 101 -107z m-262 -104 c0 -2 -9 -4 -21 -4 -11 0 -18 4
-14 10 5 8 35 3 35 -6z m113 9 c-13 -2 -33 -2 -45 0 -13 2 -3 4 22 4 25 0 35
-2 23 -4z m120 0 c-13 -2 -33 -2 -45 0 -13 2 -3 4 22 4 25 0 35 -2 23 -4z m97
-3 c0 -5 -8 -10 -17 -10 -15 0 -16 2 -3 10 19 12 20 12 20 0z"/>
<path d="M1588 2272 c-42 -4 -53 -16 -145 -167 -101 -166 -233 -410 -233 -430
0 -3 5 -3 12 1 7 4 8 3 4 -5 -11 -17 211 -431 230 -431 3 0 2 6 -2 12 -4 7 2
4 14 -6 26 -22 30 -35 5 -15 -15 12 -16 12 -10 -4 14 -38 87 -135 105 -139 30
-8 543 -10 610 -2 l58 6 47 74 c30 47 45 79 41 91 -4 13 -3 15 4 5 7 -10 25
13 69 90 67 114 103 183 103 195 0 4 -5 1 -11 -7 -9 -13 -10 -13 -6 0 2 8 10
14 16 13 16 -4 74 116 67 141 -8 30 -164 310 -253 452 l-76 122 -72 6 c-72 7
-505 5 -577 -2z m67 -12 c-3 -5 -18 -9 -33 -9 l-27 1 30 8 c17 4 31 8 33 9 2
0 0 -3 -3 -9z m88 3 c-7 -2 -21 -2 -30 0 -10 3 -4 5 12 5 17 0 24 -2 18 -5z
m170 0 c-13 -2 -33 -2 -45 0 -13 2 -3 4 22 4 25 0 35 -2 23 -4z m160 0 c-7 -2
-21 -2 -30 0 -10 3 -4 5 12 5 17 0 24 -2 18 -5z m-490 -10 c-7 -2 -19 -2 -25
0 -7 3 -2 5 12 5 14 0 19 -2 13 -5z m590 0 c-7 -2 -21 -2 -30 0 -10 3 -4 5 12
5 17 0 24 -2 18 -5z m77 -25 l22 -33 -25 27 c-13 14 -33 28 -43 31 -16 4 -16
5 3 6 14 1 29 -10 43 -31z m-726 -32 c-3 -9 -10 -16 -15 -16 -5 0 -4 9 3 20
14 22 21 20 12 -4z m774 -51 c-3 -3 -9 2 -12 12 -6 14 -5 15 5 6 7 -7 10 -15
7 -18z m-832 -37 c-9 -12 -16 -19 -16 -15 0 11 24 47 28 42 2 -2 -3 -14 -12
-27z m884 -46 c0 -4 -9 7 -20 23 -11 17 -20 35 -20 40 0 6 9 -5 20 -23 11 -18
20 -36 20 -40z m-413 -18 c-3 -3 -12 -4 -19 -1 -8 3 -5 6 6 6 11 1 17 -2 13
-5z m434 -11 c13 -16 12 -17 -3 -4 -10 7 -18 15 -18 17 0 8 8 3 21 -13z m-544
1 c-3 -3 -12 -4 -19 -1 -8 3 -5 6 6 6 11 1 17 -2 13 -5z m-53 -15 c-4 -8 3 -9
27 -4 45 11 189 12 183 3 -3 -5 2 -8 11 -8 10 0 13 5 9 12 -4 7 -3 8 5 4 6 -4
9 -11 6 -15 -5 -10 74 -47 91 -43 6 1 17 -5 24 -13 9 -10 9 -15 1 -15 -6 0
-11 5 -11 10 0 6 -5 10 -12 10 -6 0 -1 -11 12 -25 12 -13 27 -22 32 -19 5 3 7
0 6 -8 -2 -7 2 -12 9 -11 13 3 58 -55 50 -64 -3 -2 -13 9 -22 27 -9 18 -18 30
-21 27 -2 -2 8 -26 23 -53 25 -44 28 -58 28 -149 0 -85 -3 -106 -23 -143 -12
-23 -21 -46 -18 -50 3 -5 0 -14 -6 -22 -8 -12 -9 -11 -4 5 4 12 -10 3 -36 -25
-23 -25 -41 -49 -40 -53 1 -5 -1 -6 -6 -3 -10 6 -105 -38 -98 -45 3 -2 -39 -4
-92 -4 -116 0 -165 19 -241 90 -27 25 -51 42 -53 38 -3 -4 -3 -3 -2 4 2 7 -9
34 -24 60 -23 41 -27 59 -27 128 1 103 8 164 19 158 4 -3 5 3 2 13 -4 12 3 30
20 49 l26 30 -22 -33 c-12 -18 -20 -36 -17 -38 3 -3 11 5 17 18 7 12 29 41 49
63 20 21 27 33 16 25 -11 -8 -23 -19 -27 -25 -4 -5 -10 -7 -13 -3 -8 8 43 43
62 43 7 0 12 3 10 6 -3 9 24 39 36 39 6 0 2 -7 -9 -15 -10 -8 -14 -14 -9 -14
12 0 63 28 52 29 -9 0 1 20 9 20 3 0 2 -5 -2 -11z m296 -25 c0 -2 -9 0 -20 6
-11 6 -20 13 -20 16 0 2 9 0 20 -6 11 -6 20 -13 20 -16z m350 -49 c0 -5 -5 -3
-10 5 -5 8 -10 20 -10 25 0 6 5 3 10 -5 5 -8 10 -19 10 -25z m-1062 -25 c-7
-10 -14 -17 -17 -15 -4 4 18 35 25 35 2 0 -1 -9 -8 -20z m1093 -27 c13 -16 12
-17 -3 -4 -10 7 -18 15 -18 17 0 8 8 3 21 -13z m-1131 -43 c0 -5 -5 -10 -11
-10 -5 0 -7 5 -4 10 3 6 8 10 11 10 2 0 4 -4 4 -10z m1169 -26 c12 -19 16 -32
11 -29 -11 7 -43 65 -36 65 2 0 13 -16 25 -36z m-1198 -17 c-10 -9 -11 -8 -5
6 3 10 9 15 12 12 3 -3 0 -11 -7 -18z m262 -12 c-3 -9 -8 -14 -10 -11 -3 3 -2
9 2 15 9 16 15 13 8 -4z m685 -16 c-3 -8 -7 -3 -11 10 -4 17 -3 21 5 13 5 -5
8 -16 6 -23z m-966 -18 c-9 -16 -18 -28 -21 -26 -4 5 27 55 34 55 2 0 -4 -13
-13 -29z m1267 -31 c11 -24 11 -24 -3 -6 -9 11 -16 24 -16 30 0 12 5 7 19 -24z
m-1002 -32 c-3 -7 -5 -2 -5 12 0 14 2 19 5 13 2 -7 2 -19 0 -25z m-295 0 c-7
-7 -12 -8 -12 -2 0 14 12 26 19 19 2 -3 -1 -11 -7 -17z m1018 -18 c0 -22 -4
-40 -8 -40 -4 0 -8 18 -7 40 0 22 3 40 8 40 4 0 7 -18 7 -40z m291 -13 c-10
-9 -11 -8 -5 6 3 10 9 15 12 12 3 -3 0 -11 -7 -18z m-1014 -19 c-3 -7 -5 -2
-5 12 0 14 2 19 5 13 2 -7 2 -19 0 -25z m-283 -14 c3 -8 2 -12 -4 -9 -6 3 -10
10 -10 16 0 14 7 11 14 -7z m988 -46 c-7 -7 -12 -8 -12 -2 0 6 3 14 7 17 3 4
9 5 12 2 2 -3 -1 -11 -7 -17z m-679 -38 c3 -11 2 -18 -3 -15 -4 3 -10 14 -13
25 -3 11 -2 18 3 15 4 -3 10 -14 13 -25z m-243 -45 c14 -19 14 -19 -2 -6 -10
7 -18 18 -18 24 0 6 1 8 3 6 1 -2 9 -13 17 -24z m351 -102 c13 -16 12 -17 -3
-4 -10 7 -18 15 -18 17 0 8 8 3 21 -13z m-281 -28 c0 -5 -5 -3 -10 5 -5 8 -10
20 -10 25 0 6 5 3 10 -5 5 -8 10 -19 10 -25z m1024 20 c-4 -8 -11 -15 -16 -15
-6 0 -5 6 2 15 7 8 14 15 16 15 2 0 1 -7 -2 -15z m-635 -45 c8 0 12 -2 9 -5
-9 -10 -51 5 -78 26 -24 19 -24 19 15 -1 22 -11 46 -20 54 -20z m285 16 c-10
-8 -21 -12 -24 -10 -5 6 21 24 34 24 6 0 1 -6 -10 -14z m-234 -36 c0 -5 -7 -7
-15 -4 -8 4 -15 8 -15 10 0 2 7 4 15 4 8 0 15 -4 15 -10z m88 -7 c-16 -2 -40
-2 -55 0 -16 2 -3 4 27 4 30 0 43 -2 28 -4z m376 -123 c-10 -16 -20 -28 -22
-26 -4 5 28 56 35 56 2 0 -4 -13 -13 -30z m-754 -65 c0 -5 -9 1 -20 15 -11 14
-20 30 -20 35 0 6 9 -1 20 -15 11 -14 20 -29 20 -35z m718 5 c-7 -11 -17 -20
-22 -20 -5 0 -1 9 9 20 10 11 20 20 22 20 2 0 -2 -9 -9 -20z m-655 -37 c-7 -2
-19 -2 -25 0 -7 3 -2 5 12 5 14 0 19 -2 13 -5z m94 -9 c-3 -3 -12 -4 -19 -1
-8 3 -5 6 6 6 11 1 17 -2 13 -5z m130 -1 c-20 -2 -52 -2 -70 0 -17 2 0 4 38 4
39 0 53 -2 32 -4z m186 0 c-18 -2 -48 -2 -65 0 -18 2 -4 4 32 4 36 0 50 -2 33
-4z m84 1 c-3 -3 -12 -4 -19 -1 -8 3 -5 6 6 6 11 1 17 -2 13 -5z"/>
<path d="M1170 2224 c-80 -14 -149 -29 -154 -34 -12 -12 88 -300 104 -300 11
0 40 71 34 82 -5 7 -2 8 6 3 10 -6 12 -4 7 9 -5 11 -3 15 5 10 8 -5 9 -2 5 9
-3 9 -1 19 5 23 7 4 8 3 4 -4 -4 -7 -5 -12 -3 -12 6 0 57 86 57 95 0 3 -5 3
-12 -1 -7 -4 -8 -3 -4 5 4 6 11 9 16 6 4 -3 21 16 36 42 15 27 34 58 42 71 8
12 10 22 6 21 -5 0 -74 -12 -154 -25z m79 -8 c-2 -2 -20 -6 -39 -10 -25 -4
-31 -3 -20 4 14 9 69 15 59 6z m45 -11 c-4 -8 -11 -15 -16 -15 -6 0 -5 6 2 15
7 8 14 15 16 15 2 0 1 -7 -2 -15z m-154 -5 c0 -5 -5 -10 -11 -10 -5 0 -7 5 -4
10 3 6 8 10 11 10 2 0 4 -4 4 -10z m-87 -17 c-19 -4 -21 -8 -12 -30 5 -14 8
-28 5 -30 -2 -2 -8 9 -14 26 -12 33 -7 42 22 40 20 -2 20 -2 -1 -6z m4 -95
c-3 -8 -6 -5 -6 6 -1 11 2 17 5 13 3 -3 4 -12 1 -19z m151 -23 c-6 -14 -13
-23 -15 -21 -5 5 15 46 22 46 3 0 -1 -11 -7 -25z m-129 -25 c11 -24 11 -24 -3
-6 -9 11 -16 24 -16 30 0 12 5 7 19 -24z m35 -92 c9 -17 16 -34 16 -37 0 -8
-26 32 -33 52 -10 28 0 19 17 -15z"/>
<path d="M2516 2144 c62 -105 83 -135 71 -101 -4 11 -3 16 4 12 6 -4 8 -14 5
-22 -3 -8 12 -47 35 -86 22 -40 38 -64 35 -54 -3 9 -2 17 3 17 9 0 37 68 81
197 26 74 27 83 12 87 -14 4 -122 24 -283 51 -25 4 -24 0 37 -101z m4 82 c0
-2 -9 -6 -20 -9 -11 -3 -20 -1 -20 4 0 5 9 9 20 9 11 0 20 -2 20 -4z m85 -16
l20 -9 -20 1 c-11 0 -33 4 -50 8 l-30 8 30 0 c17 0 39 -3 50 -8z m50 -10 c3
-5 1 -10 -4 -10 -6 0 -11 5 -11 10 0 6 2 10 4 10 3 0 8 -4 11 -10z m-135 -25
c14 -19 14 -19 -2 -6 -10 7 -18 18 -18 24 0 6 1 8 3 6 1 -2 9 -13 17 -24z
m240 -10 c0 -8 -4 -15 -10 -15 -5 0 -7 7 -4 15 4 8 8 15 10 15 2 0 4 -7 4 -15z
m-34 -101 c-4 -9 -9 -15 -11 -12 -3 3 -3 13 1 22 4 9 9 15 11 12 3 -3 3 -13
-1 -22z m-45 -107 c-10 -9 -11 -8 -5 6 3 10 9 15 12 12 3 -3 0 -11 -7 -18z
m-12 -17 c7 0 9 -5 6 -10 -8 -13 -22 -4 -35 23 -10 20 -10 20 3 5 8 -10 20
-18 26 -18z"/>
<path d="M795 2136 c-22 -6 -39 -15 -37 -20 2 -4 0 -11 -4 -14 -4 -4 -4 -1 0
6 10 17 0 16 -71 -10 -34 -12 -59 -26 -56 -31 4 -6 1 -7 -6 -2 -17 10 -112
-35 -104 -48 3 -6 1 -7 -5 -3 -11 7 -72 -19 -72 -30 0 -3 4 -2 10 1 16 10 11
-1 -7 -16 -11 -10 -14 -10 -9 -1 9 15 1 15 -25 1 -11 -5 -17 -14 -14 -19 3 -6
0 -7 -7 -5 -7 3 -27 -7 -44 -22 -16 -16 -21 -21 -10 -13 17 12 16 9 -3 -13
-25 -28 -38 -36 -25 -16 4 7 1 10 -7 7 -8 -3 -13 -11 -11 -17 1 -7 -1 -10 -6
-7 -12 7 -56 -40 -48 -52 3 -5 -1 -18 -10 -28 -14 -18 -14 -18 -4 5 9 18 9 22
0 16 -19 -12 -50 -87 -50 -123 0 -33 40 -125 61 -137 8 -5 8 -1 -1 16 -10 23
-10 23 4 5 9 -10 13 -23 10 -28 -4 -6 9 -25 27 -44 34 -35 62 -47 38 -16 -13
15 -12 16 3 3 10 -7 16 -17 13 -21 -8 -12 23 -33 36 -24 8 4 9 3 5 -4 -9 -15
79 -72 190 -124 74 -34 276 -110 280 -105 1 1 14 40 29 87 15 47 39 111 52
144 13 32 22 65 19 73 -3 8 -2 12 2 9 5 -3 25 33 45 79 l36 85 -21 52 c-23 57
-46 90 -33 49 5 -17 4 -21 -5 -16 -7 4 -9 18 -5 37 4 17 3 28 -2 25 -5 -3 -9
2 -10 11 -1 14 -101 304 -106 308 -1 1 -20 -4 -42 -10z m-65 -40 c0 -2 -7 -6
-15 -10 -8 -3 -15 -1 -15 4 0 6 7 10 15 10 8 0 15 -2 15 -4z m124 -32 c3 -8 2
-12 -4 -9 -6 3 -10 10 -10 16 0 14 7 11 14 -7z m-268 -23 c-6 -9 -46 -22 -46
-15 0 3 10 9 23 14 29 11 29 11 23 1z m281 -33 c-3 -8 -6 -5 -6 6 -1 11 2 17
5 13 3 -3 4 -12 1 -19z m-370 -14 c-3 -3 -12 -4 -19 -1 -8 3 -5 6 6 6 11 1 17
-2 13 -5z m396 -36 c6 -22 5 -22 -8 -4 -17 22 -20 40 -6 32 5 -3 11 -16 14
-28z m22 -58 c3 -5 1 -10 -4 -10 -6 0 -11 5 -11 10 0 6 2 10 4 10 3 0 8 -4 11
-10z m-645 -64 c0 -3 -4 -8 -10 -11 -5 -3 -10 -1 -10 4 0 6 5 11 10 11 6 0 10
-2 10 -4z m-67 -106 c-3 -12 -8 -19 -11 -16 -5 6 5 36 12 36 2 0 2 -9 -1 -20z
m787 -15 c0 -5 -5 -3 -10 5 -5 8 -10 20 -10 25 0 6 5 3 10 -5 5 -8 10 -19 10
-25z m-803 -37 c-3 -8 -6 -5 -6 6 -1 11 2 17 5 13 3 -3 4 -12 1 -19z m816 -8
c-3 -11 -7 -20 -9 -20 -2 0 -4 9 -4 20 0 11 4 20 9 20 5 0 7 -9 4 -20z m-798
-40 c3 -5 1 -10 -4 -10 -6 0 -11 5 -11 10 0 6 2 10 4 10 3 0 8 -4 11 -10z
m765 -30 c-6 -11 -13 -20 -16 -20 -2 0 0 9 6 20 6 11 13 20 16 20 2 0 0 -9 -6
-20z m-73 -190 c-6 -16 -15 -30 -19 -30 -5 0 -2 14 7 30 9 17 17 30 19 30 3 0
-1 -13 -7 -30z m-466 -17 c13 -16 12 -17 -3 -4 -10 7 -18 15 -18 17 0 8 8 3
21 -13z m75 -44 c3 -6 -5 -3 -20 6 -14 10 -26 19 -26 22 0 7 39 -17 46 -28z
m367 6 c-3 -9 -8 -14 -10 -11 -3 3 -2 9 2 15 9 16 15 13 8 -4z m-307 -30 c16
-8 22 -15 13 -15 -8 0 -24 7 -35 15 -25 19 -14 19 22 0z m79 -35 c3 -5 1 -10
-4 -10 -6 0 -11 5 -11 10 0 6 2 10 4 10 3 0 8 -4 11 -10z m92 -36 c-3 -3 -12
-4 -19 -1 -8 3 -5 6 6 6 11 1 17 -2 13 -5z m96 -19 c-3 -9 -8 -14 -10 -11 -3
3 -2 9 2 15 9 16 15 13 8 -4z m-29 -4 c4 -5 -3 -7 -14 -4 -23 6 -26 13 -6 13
8 0 17 -4 20 -9z"/>
<path d="M2940 2127 c-36 -88 -71 -201 -66 -213 4 -10 2 -12 -6 -8 -8 5 -9 2
-5 -10 4 -9 3 -15 -1 -12 -9 5 -92 -184 -91 -206 1 -19 67 -155 68 -140 1 7
-6 26 -14 42 -9 17 -13 30 -11 30 13 0 36 -63 31 -80 -3 -10 0 -32 8 -47 8
-15 34 -82 57 -148 23 -66 43 -121 45 -123 5 -5 197 68 279 106 123 58 291
175 284 198 -3 12 25 54 36 54 5 0 -1 -12 -15 -27 l-24 -28 28 25 c15 13 25
30 22 38 -2 7 0 10 5 7 14 -9 40 56 40 97 0 18 -9 52 -19 75 -24 52 -100 136
-117 129 -8 -3 -16 0 -20 6 -5 7 -2 8 7 4 35 -18 -52 48 -104 79 -61 37 -83
44 -71 23 4 -8 3 -10 -2 -5 -5 5 -9 14 -9 20 0 12 -83 49 -233 103 l-93 34 -9
-23z m63 -14 c-7 -2 -19 -2 -25 0 -7 3 -2 5 12 5 14 0 19 -2 13 -5z m58 -21
c-7 -2 -18 1 -23 6 -8 8 -4 9 13 5 13 -4 18 -8 10 -11z m88 -28 c9 -9 -53 7
-63 17 -5 5 5 4 24 -1 18 -5 35 -12 39 -16z m-217 -26 c-7 -7 -12 -8 -12 -2 0
14 12 26 19 19 2 -3 -1 -11 -7 -17z m259 5 c13 -17 13 -17 -6 -3 -11 8 -22 16
-24 17 -2 2 0 3 6 3 6 0 17 -8 24 -17z m59 -23 c8 -5 11 -10 5 -10 -5 0 -17 5
-25 10 -8 5 -10 10 -5 10 6 0 17 -5 25 -10z m-335 -30 c-9 -16 -18 -30 -21
-30 -2 0 2 14 11 30 9 17 18 30 21 30 2 0 -2 -13 -11 -30z m426 -21 l24 -20
-30 17 c-39 24 -40 24 -28 24 6 0 21 -9 34 -21z m54 -29 c3 -6 -1 -7 -9 -4
-18 7 -21 14 -7 14 6 0 13 -4 16 -10z m130 -101 c13 -20 0 -15 -25 9 -23 22
-23 24 -3 13 12 -6 25 -16 28 -22z m-674 -2 c-10 -9 -11 -8 -5 6 3 10 9 15 12
12 3 -3 0 -11 -7 -18z m729 -82 c0 -11 -14 7 -31 40 -7 13 -3 12 10 -5 11 -14
21 -29 21 -35z m19 -65 l-1 -25 -8 25 c-4 14 -8 32 -9 40 -1 13 0 13 9 0 5 -8
9 -26 9 -40z m-789 -58 c0 -15 -2 -15 -10 -2 -13 20 -13 33 0 25 6 -3 10 -14
10 -23z m783 8 c-3 -11 -7 -20 -9 -20 -2 0 -4 9 -4 20 0 11 4 20 9 20 5 0 7
-9 4 -20z m-133 -171 c-36 -31 -85 -62 -65 -41 14 15 89 71 95 71 3 0 -11 -13
-30 -30z m-560 -44 c0 -8 -2 -15 -4 -15 -2 0 -6 7 -10 15 -3 8 -1 15 4 15 6 0
10 -7 10 -15z m470 -19 c0 -3 -4 -8 -10 -11 -5 -3 -10 -1 -10 4 0 6 5 11 10
11 6 0 10 -2 10 -4z m-31 -20 c-10 -9 -69 -36 -69 -32 0 7 52 35 64 36 5 0 7
-2 5 -4z m-415 -22 c3 -8 2 -12 -4 -9 -6 3 -10 10 -10 16 0 14 7 11 14 -7z
m296 -38 c0 -2 -7 -7 -16 -10 -8 -3 -12 -2 -9 4 6 10 25 14 25 6z m-40 -20 c0
-2 -13 -9 -30 -15 -35 -12 -41 -5 -7 9 25 10 37 12 37 6z m-233 -28 c-3 -8 -6
-5 -6 6 -1 11 2 17 5 13 3 -3 4 -12 1 -19z m163 3 c0 -5 -10 -11 -22 -14 -22
-6 -22 -6 -4 8 23 17 26 18 26 6z m-122 -47 c2 -1 -4 -4 -12 -7 -8 -3 -16 2
-19 14 -5 17 -3 18 11 7 9 -7 18 -13 20 -14z m37 16 c-3 -5 -12 -10 -18 -10
-7 0 -6 4 3 10 19 12 23 12 15 0z"/>
<path d="M3525 2070 c3 -5 11 -10 16 -10 6 0 7 5 4 10 -3 6 -11 10 -16 10 -6
0 -7 -4 -4 -10z"/>
<path d="M0 807 l0 -807 522 1 c349 1 512 4 489 11 -18 5 -44 16 -56 24 -12 8
-29 12 -38 9 -8 -4 -18 -2 -22 4 -4 7 1 8 12 4 16 -6 16 -5 4 11 -8 9 -21 14
-30 11 -8 -3 -12 -3 -9 1 8 7 -60 109 -72 109 -5 0 -12 4 -17 9 -5 6 -2 6 6 1
11 -6 13 -4 7 11 -4 10 -14 41 -22 67 -8 26 -19 45 -24 42 -5 -3 -12 0 -16 6
-5 8 -3 9 6 4 10 -6 11 2 4 46 -11 68 -12 339 -1 438 7 57 6 71 -4 65 -8 -4
-10 -3 -5 5 4 6 11 9 15 7 4 -3 13 25 21 62 7 37 15 72 17 77 2 6 -36 24 -84
39 -49 16 -143 55 -211 87 -68 32 -129 56 -137 52 -8 -3 -15 0 -15 7 0 6 5 8
10 5 6 -3 10 -4 10 -1 0 10 -57 35 -65 28 -3 -4 -5 -1 -3 7 1 7 -3 16 -11 19
-9 3 -11 0 -6 -9 5 -8 4 -11 -1 -6 -5 5 -9 14 -9 20 0 5 -6 12 -14 15 -9 3
-11 0 -5 -9 6 -12 5 -12 -9 0 -10 8 -15 16 -12 19 6 7 -25 42 -37 42 -5 0 -6
-6 -2 -12 4 -7 -12 5 -34 26 -23 22 -39 43 -36 47 2 4 -7 20 -21 36 -25 27
-26 27 -14 3 9 -20 9 -23 -1 -13 -7 6 -13 22 -14 35 -1 13 -7 22 -15 20 -7 -1
-10 2 -7 7 3 4 -5 35 -19 67 l-24 59 -1 -808z m29 713 c11 -24 11 -24 -3 -6
-9 11 -16 24 -16 30 0 12 5 7 19 -24z m411 -366 c0 -2 -9 0 -20 6 -11 6 -20
13 -20 16 0 2 9 0 20 -6 11 -6 20 -13 20 -16z m60 -24 c8 -5 11 -10 5 -10 -5
0 -17 5 -25 10 -8 5 -10 10 -5 10 6 0 17 -5 25 -10z m115 -51 c5 -5 -5 -4 -23
2 -17 6 -32 13 -32 16 0 7 43 -8 55 -18z m94 -35 c14 -12 -19 -1 -35 12 -18
14 -18 14 6 3 14 -6 27 -13 29 -15z m52 -61 c-12 -20 -14 -14 -5 12 4 9 9 14
11 11 3 -2 0 -13 -6 -23z m-30 -179 c-5 -21 -9 -30 -10 -19 -1 24 10 67 15 62
3 -2 0 -22 -5 -43z m-7 -59 c-4 -8 -8 -15 -10 -15 -2 0 -4 7 -4 15 0 8 4 15
10 15 5 0 7 -7 4 -15z m-8 -170 c-1 -72 -16 -72 -16 0 0 30 4 55 9 55 5 0 8
-25 7 -55z m1 -157 c-3 -7 -5 -2 -5 12 0 14 2 19 5 13 2 -7 2 -19 0 -25z m52
-178 c11 -24 11 -24 -3 -6 -9 11 -16 24 -16 30 0 12 5 7 19 -24z m46 -80 c3
-5 1 -10 -4 -10 -6 0 -11 5 -11 10 0 6 2 10 4 10 3 0 8 -4 11 -10z"/>
<path d="M2647 1445 c-9 -19 -14 -41 -11 -50 4 -8 1 -15 -6 -15 -6 0 -8 5 -5
10 3 6 4 10 1 10 -11 0 -36 -59 -30 -73 3 -8 1 -18 -5 -22 -7 -3 -8 0 -5 9 11
27 -5 17 -21 -13 -8 -17 -12 -37 -9 -45 3 -9 1 -16 -6 -16 -6 0 -8 6 -4 13 21
38 -18 -17 -54 -75 l-42 -68 47 6 c49 6 259 43 279 49 14 4 -69 240 -84 240
-6 0 -14 4 -19 9 -5 5 -3 6 5 2 7 -4 12 -1 12 9 0 9 -4 14 -9 11 -5 -4 -7 2
-4 13 9 34 -13 31 -30 -4z m73 -118 c0 -5 -4 -5 -10 -2 -5 3 -10 14 -10 23 0
15 2 15 10 2 5 -8 10 -19 10 -23z m19 -57 c11 -24 11 -24 -3 -6 -9 11 -16 24
-16 30 0 12 5 7 19 -24z m21 -51 c0 -6 -4 -7 -10 -4 -5 3 -10 11 -10 16 0 6 5
7 10 4 6 -3 10 -11 10 -16z m7 -41 c-3 -8 -6 -5 -6 6 -1 11 2 17 5 13 3 -3 4
-12 1 -19z m-42 -8 c-3 -5 -14 -10 -23 -10 -15 0 -15 2 -2 10 20 13 33 13 25
0z m-55 -10 c0 -5 -15 -9 -32 -9 l-33 1 30 8 c17 4 31 8 33 9 1 0 2 -3 2 -9z
m-170 -20 c0 -5 -5 -10 -11 -10 -5 0 -7 5 -4 10 3 6 8 10 11 10 2 0 4 -4 4
-10z"/>
<path d="M1096 1423 c-10 -27 -36 -96 -57 -155 l-38 -107 52 -11 c75 -16 256
-42 267 -38 11 4 -58 114 -70 111 -5 -2 -7 3 -4 10 2 7 -2 21 -11 32 -15 20
-15 20 -9 0 5 -16 4 -17 -4 -5 -6 8 -9 17 -6 22 8 13 -46 109 -58 102 -6 -4
-8 -3 -5 4 10 15 -3 43 -16 35 -5 -3 -7 -1 -4 5 8 11 -1 42 -12 42 -4 0 -15
-21 -25 -47z m20 -9 c-4 -9 -9 -15 -11 -12 -3 3 -3 13 1 22 4 9 9 15 11 12 3
-3 3 -13 -1 -22z m64 -69 c14 -19 14 -19 -2 -6 -10 7 -18 18 -18 24 0 6 1 8 3
6 1 -2 9 -13 17 -24z m-97 -10 c-3 -9 -8 -14 -10 -11 -3 3 -2 9 2 15 9 16 15
13 8 -4z m-33 -166 c0 -4 -7 -6 -15 -3 -8 4 -15 10 -15 15 0 4 7 6 15 3 8 -4
15 -10 15 -15z m70 -15 c0 -2 -7 -4 -15 -4 -8 0 -15 4 -15 10 0 5 7 7 15 4 8
-4 15 -8 15 -10z m175 -15 c-4 -5 -1 -9 6 -9 7 0 10 -2 7 -5 -3 -3 -16 -1 -29
4 -18 7 -20 10 -6 10 11 1 15 5 11 13 -4 7 -3 8 5 4 6 -4 9 -12 6 -17z"/>
<path d="M120 1397 c0 -2 15 -16 33 -33 l32 -29 -29 33 c-28 30 -36 37 -36 29z"/>
<path d="M2809 996 c-6 -6 -302 -54 -397 -65 -46 -5 -84 -11 -86 -12 -92 -124
-116 -158 -116 -165 1 -5 10 2 20 15 11 13 20 19 20 14 0 -13 -35 -45 -42 -38
-5 5 -68 -69 -68 -80 0 -3 6 -3 13 1 6 4 3 -2 -7 -14 -23 -26 -34 -29 -15 -4
7 9 0 5 -15 -9 -15 -14 -28 -32 -30 -40 -3 -19 -25 -57 -26 -43 0 5 6 16 13
24 6 8 2 6 -10 -4 -13 -10 -20 -23 -16 -29 3 -5 1 -7 -5 -3 -6 3 -14 1 -17 -5
-9 -13 45 -71 60 -65 6 2 24 -8 40 -21 28 -24 19 -23 -16 1 -9 6 7 -10 35 -37
31 -29 56 -45 65 -42 9 3 12 3 8 -1 -8 -8 11 -34 25 -34 6 0 4 8 -3 18 -11 15
-11 15 1 4 8 -7 15 -18 15 -25 0 -7 9 -11 20 -10 10 1 28 -5 39 -13 11 -8 16
-14 10 -14 -5 0 -15 5 -22 12 -6 6 -14 9 -17 6 -9 -9 107 -75 190 -108 91 -36
193 -49 248 -31 48 16 100 75 92 104 -5 17 -4 19 4 7 9 -13 10 -13 15 0 29 92
37 127 44 199 11 114 5 234 -18 375 -11 65 -20 122 -20 127 0 9 -23 13 -31 5z
m23 -36 c3 -16 1 -30 -4 -30 -4 0 -8 14 -8 30 0 17 2 30 4 30 2 0 6 -13 8 -30z
m-22 16 c0 -2 -11 -6 -25 -8 -14 -3 -25 -1 -25 3 0 5 11 9 25 9 14 0 25 -2 25
-4z m-70 -16 c-8 -5 -22 -9 -30 -9 -10 0 -8 3 5 9 27 12 43 12 25 0z m-70 -10
c-8 -5 -19 -10 -25 -10 -5 0 -3 5 5 10 8 5 20 10 25 10 6 0 3 -5 -5 -10z
m-100 -14 c0 -2 -9 -6 -20 -9 -11 -3 -20 -1 -20 4 0 5 9 9 20 9 11 0 20 -2 20
-4z m-57 -13 c-7 -2 -19 -2 -25 0 -7 3 -2 5 12 5 14 0 19 -2 13 -5z m-123 -7
c0 -2 -9 -6 -20 -9 -11 -3 -18 -1 -14 4 5 9 34 13 34 5z m-85 -60 c-27 -35
-44 -49 -29 -23 19 31 48 66 52 63 2 -3 -8 -21 -23 -40z m545 16 c0 -15 -2
-15 -10 -2 -13 20 -13 33 0 25 6 -3 10 -14 10 -23z m5 -32 c3 -5 1 -10 -4 -10
-6 0 -11 5 -11 10 0 6 2 10 4 10 3 0 8 -4 11 -10z m2 -42 c-3 -8 -6 -5 -6 6
-1 11 2 17 5 13 3 -3 4 -12 1 -19z m-647 -71 c0 -2 -10 -12 -21 -23 -22 -19
-22 -19 -8 4 12 19 29 30 29 19z m657 -59 c-3 -8 -6 -5 -6 6 -1 11 2 17 5 13
3 -3 4 -12 1 -19z m0 -90 c-2 -13 -4 -3 -4 22 0 25 2 35 4 23 2 -13 2 -33 0
-45z m-792 -78 c3 -5 2 -10 -4 -10 -5 0 -13 5 -16 10 -3 6 -2 10 4 10 5 0 13
-4 16 -10z m782 -82 c-3 -7 -5 -2 -5 12 0 14 2 19 5 13 2 -7 2 -19 0 -25z
m-667 -20 c0 -6 -6 -5 -15 2 -8 7 -15 14 -15 16 0 2 7 1 15 -2 8 -4 15 -11 15
-16z m649 -42 c-9 -8 -10 -7 -5 7 3 10 7 24 7 30 1 7 3 4 6 -7 3 -10 -1 -23
-8 -30z m-39 -110 c0 -2 -7 -9 -15 -16 -13 -11 -14 -10 -9 4 5 14 24 23 24 12z
m-214 -54 c-10 -2 -22 0 -28 6 -6 6 0 7 19 4 21 -5 23 -7 9 -10z"/>
<path d="M942 933 c-43 -208 -52 -387 -28 -525 14 -78 61 -183 83 -183 6 0 15
-4 20 -9 5 -5 2 -6 -6 -1 -10 6 -12 4 -6 -4 24 -40 130 -52 230 -26 67 18 247
103 285 136 l25 21 -27 -16 c-16 -9 -28 -12 -28 -7 0 10 38 26 55 23 6 -1 24
10 40 24 29 25 29 25 3 10 -38 -22 -49 -20 -14 3 16 11 35 17 41 14 13 -4 29
13 30 32 0 6 7 9 16 7 8 -1 28 12 45 30 16 18 20 26 9 18 -18 -14 -19 -14 -6
2 7 10 17 16 21 13 4 -3 18 3 30 13 l21 17 -28 25 c-24 22 -26 22 -9 2 16 -18
17 -25 7 -35 -10 -9 -11 -9 -6 4 3 9 -1 21 -9 28 -8 7 -13 18 -10 25 5 13 -44
64 -53 56 -4 -3 -7 4 -9 14 -1 11 -13 29 -25 40 -12 12 -18 14 -14 6 5 -8 -4
-4 -18 9 -15 14 -27 27 -27 29 0 3 9 -3 20 -13 11 -10 20 -14 20 -8 0 12 -39
49 -49 46 -3 -1 -8 1 -11 4 -3 4 1 3 8 -1 6 -4 12 -3 12 2 0 11 -30 38 -39 35
-3 -1 -8 1 -11 4 -3 4 1 3 8 -1 18 -11 15 9 -5 25 -11 10 -14 10 -9 2 4 -8 2
-13 -4 -13 -6 0 -9 8 -6 18 3 10 -7 32 -27 55 l-32 39 -138 14 c-76 8 -183 23
-238 34 -55 11 -106 20 -113 20 -7 0 -17 -25 -24 -57z m38 43 c0 -3 -4 -8 -10
-11 -5 -3 -10 -1 -10 4 0 6 5 11 10 11 6 0 10 -2 10 -4z m70 -16 c13 -9 13
-10 0 -10 -8 0 -22 5 -30 10 -13 9 -13 10 0 10 8 0 22 -5 30 -10z m-93 -42
c-3 -8 -6 -5 -6 6 -1 11 2 17 5 13 3 -3 4 -12 1 -19z m320 6 c-3 -3 -12 -4
-19 -1 -8 3 -5 6 6 6 11 1 17 -2 13 -5z m28 -4 c3 -5 1 -10 -4 -10 -6 0 -11 5
-11 10 0 6 2 10 4 10 3 0 8 -4 11 -10z m167 -34 c10 -11 18 -25 18 -31 -1 -5
-8 2 -18 18 -11 17 -26 27 -42 28 -14 0 -34 4 -45 9 -13 6 -5 7 25 3 29 -3 51
-13 62 -27z m-530 -48 c-6 -6 -7 0 -4 19 5 21 7 23 10 9 2 -10 0 -22 -6 -28z
m-11 -81 c-10 -9 -11 -8 -5 6 3 10 9 15 12 12 3 -3 0 -11 -7 -18z m-5 -114
c-10 -26 -18 -8 -9 23 5 21 8 24 11 11 2 -10 1 -25 -2 -34z m-9 -90 c-2 -16
-4 -5 -4 22 0 28 2 40 4 28 2 -13 2 -35 0 -50z m10 -66 c2 -17 1 -19 -7 -7
-11 17 -14 47 -3 36 4 -3 8 -17 10 -29z m12 -92 l0 -20 -9 20 c-5 11 -9 27 -9
35 -1 13 0 13 9 0 5 -8 9 -24 9 -35z m21 -75 c6 -11 8 -20 6 -20 -3 0 -10 9
-16 20 -6 11 -8 20 -6 20 3 0 10 -9 16 -20z m440 -60 c-8 -5 -19 -10 -25 -10
-5 0 -3 5 5 10 8 5 20 10 25 10 6 0 3 -5 -5 -10z m-60 -24 c0 -2 -7 -7 -16
-10 -8 -3 -12 -2 -9 4 6 10 25 14 25 6z m-65 -26 c-3 -5 -11 -10 -16 -10 -6 0
-7 5 -4 10 3 6 11 10 16 10 6 0 7 -4 4 -10z m-220 -10 c3 -6 -1 -7 -9 -4 -18
7 -21 14 -7 14 6 0 13 -4 16 -10z m170 1 c-6 -6 -30 -12 -55 -15 l-45 -6 50
14 c28 7 52 14 55 15 2 0 0 -3 -5 -8z m-119 -19 c-10 -2 -22 0 -28 6 -6 6 0 7
19 4 21 -5 23 -7 9 -10z"/>
<path d="M1692 893 c5 -7 14 -10 19 -7 5 3 6 -1 4 -9 -3 -7 4 -22 16 -33 13
-10 19 -13 14 -5 -5 10 -4 12 4 7 6 -4 9 -11 6 -16 -3 -5 5 -19 17 -32 13 -13
17 -16 9 -6 -8 10 -10 18 -4 18 11 0 25 -25 27 -46 1 -5 22 -34 47 -63 l45
-53 53 61 c30 34 51 64 48 68 -4 3 8 25 25 49 17 24 34 42 36 39 3 -3 -3 -15
-14 -28 -34 -38 -50 -61 -37 -53 7 4 33 33 57 65 l45 58 -214 -1 c-174 0 -212
-2 -203 -13z m88 -9 c0 -2 -11 -4 -25 -4 -14 0 -25 4 -25 9 0 4 11 6 25 3 14
-2 25 -6 25 -8z m307 9 c-11 -10 -57 -15 -57 -5 0 4 14 9 32 10 18 2 29 -1 25
-5z m-260 -9 c-3 -3 -12 -4 -19 -1 -8 3 -5 6 6 6 11 1 17 -2 13 -5z m150 0
c-3 -3 -12 -4 -19 -1 -8 3 -5 6 6 6 11 1 17 -2 13 -5z m-27 -160 c-18 -21 -37
-42 -43 -48 -7 -9 -20 -1 -48 29 -21 22 -36 42 -33 44 2 2 19 -13 37 -34 l33
-38 39 46 c22 25 42 43 44 41 2 -2 -11 -20 -29 -40z"/>
<path d="M1879 383 c-13 -16 -12 -17 2 -5 14 11 22 8 50 -15 l34 -27 -29 32
c-34 37 -39 38 -57 15z"/>
<path d="M1875 362 c-10 -9 -15 -11 -11 -4 14 24 -6 12 -62 -38 -32 -28 -57
-56 -57 -63 0 -7 -7 -12 -15 -12 -13 0 -160 -93 -160 -101 0 -2 8 -1 18 2 14
5 14 4 2 -4 -8 -6 -18 -9 -22 -6 -12 8 -69 -26 -63 -36 4 -6 -1 -7 -11 -3 -13
5 -15 3 -9 -7 5 -9 4 -11 -3 -6 -6 4 -42 -7 -80 -23 -38 -17 -95 -37 -128 -44
-53 -13 11 -15 616 -14 371 0 666 2 655 4 -44 9 -123 37 -183 65 -35 15 -68
25 -74 22 -7 -4 -8 -2 -4 4 4 7 -7 18 -26 28 -18 9 -54 32 -79 50 -27 19 -53
32 -62 28 -8 -3 -18 -1 -22 5 -4 7 1 8 12 5 10 -4 0 9 -22 27 -21 19 -48 35
-58 35 -10 1 -26 9 -35 19 -16 16 -15 16 13 -1 l30 -18 -29 32 c-29 31 -55 44
-39 20 4 -7 -11 1 -33 19 -39 30 -42 31 -59 15z m-45 -35 c0 -2 -12 -14 -27
-28 l-28 -24 24 28 c23 25 31 32 31 24z m245 -95 c-3 -3 -11 0 -18 7 -9 10 -8
11 6 5 10 -3 15 -9 12 -12z m-396 -35 c-2 -1 -20 -12 -39 -25 l-35 -23 34 30
c19 17 37 28 40 26 2 -3 2 -6 0 -8z m536 -57 c3 -6 -1 -7 -9 -4 -18 7 -21 14
-7 14 6 0 13 -4 16 -10z m55 -36 c0 -2 -9 0 -20 6 -11 6 -20 13 -20 16 0 2 9
0 20 -6 11 -6 20 -13 20 -16z m-730 6 c0 -5 -5 -10 -11 -10 -5 0 -7 5 -4 10 3
6 8 10 11 10 2 0 4 -4 4 -10z m846 -68 c-5 -4 -66 26 -66 33 0 3 16 -3 35 -12
19 -9 33 -18 31 -21z m-981 -2 c-22 -10 -44 -18 -50 -18 -5 0 8 8 30 19 22 10
45 18 50 18 6 0 -8 -9 -30 -19z"/>
</g>
</svg>
